<?xml version="1.0" encoding="UTF-8" standalone="no"?>
<!-- Generator: Adobe Illustrator 25.3.1, SVG Export Plug-In . SVG Version: 6.00 Build 0)  -->

<svg
   version="1.1"
   id="svg5048"
   inkscape:export-filename="logo.png"
   inkscape:export-xdpi="96"
   inkscape:export-ydpi="96"
   inkscape:version="1.3 (0e150ed6c4, 2023-07-21)"
   sodipodi:docname="logo-text.svg"
   x="0px"
   y="0px"
   viewBox="0 0 256 351"
   style="enable-background:new 0 0 256 351;"
   xml:space="preserve"
   xmlns:inkscape="http://www.inkscape.org/namespaces/inkscape"
   xmlns:sodipodi="http://sodipodi.sourceforge.net/DTD/sodipodi-0.dtd"
   xmlns="http://www.w3.org/2000/svg"
   xmlns:svg="http://www.w3.org/2000/svg"><defs
   id="defs1" />&#10;<style
   type="text/css"
   id="style1">&#10;	.st0{fill:#FFFFFF;}&#10;</style>&#10;<sodipodi:namedview
   bordercolor="#666666"
   borderopacity="1.0"
   id="base"
   inkscape:current-layer="svg5048"
   inkscape:cx="98.518248"
   inkscape:cy="170.28826"
   inkscape:document-units="px"
   inkscape:pageopacity="0.0"
   inkscape:pageshadow="2"
   inkscape:window-height="1167"
   inkscape:window-maximized="1"
   inkscape:window-width="2194"
   inkscape:window-x="0"
   inkscape:window-y="0"
   inkscape:zoom="1.8879751"
   pagecolor="#ffffff"
   showgrid="false"
   inkscape:showpageshadow="2"
   inkscape:pagecheckerboard="0"
   inkscape:deskcolor="#d1d1d1">&#10;	<inkscape:grid
   empspacing="5"
   enabled="true"
   id="grid3011"
   snapvisiblegridlinesonly="true"
   type="xygrid"
   visible="false"
   originx="0"
   originy="0"
   spacingy="1"
   spacingx="1"
   units="px">&#10;		</inkscape:grid>&#10;</sodipodi:namedview>&#10;&#10;&#10;&#10;&#10;&#10;&#10;&#10;&#10;&#10;&#10;&#10;&#10;<g
   id="text4577"
   transform="matrix(1.8310128,0,0,1.83102,-87.510207,-992.49927)">&#10;	<path
   id="path4579"
   inkscape:connector-curvature="0"
   class="st0"
   d="m 69.4,710.7 c 0,2.3 -0.8,4.3 -2.4,5.9 -1.7,1.7 -3.6,2.5 -5.9,2.5 h -1.7 c -1.1,0 -1.7,0.5 -1.7,1.7 v 6.7 c 0,0.9 -0.3,1.7 -0.9,2.3 -0.7,0.7 -1.5,1 -2.4,1 h -1.7 c -0.9,0 -1.7,-0.3 -2.3,-1 -0.7,-0.6 -1,-1.4 -1,-2.3 v -38.3 c 0,-2.3 0.8,-4.3 2.5,-5.9 1.6,-1.6 3.5,-2.4 5.9,-2.4 h 3.3 c 2.3,0 4.3,0.8 5.9,2.4 1.6,1.7 2.4,3.6 2.4,5.9 z m -8.3,-1.6 v -18.3 c 0,-1.1 -0.5,-1.7 -1.7,-1.7 -1.1,0 -1.7,0.5 -1.7,1.7 v 18.3 c 0,1.1 0.5,1.7 1.7,1.7 1.2,-0.1 1.7,-0.6 1.7,-1.7 z" />&#10;	<path
   id="path4581"
   inkscape:connector-curvature="0"
   class="st0"
   d="m 92.7,722.4 c 0,2.3 -0.8,4.3 -2.4,5.9 -1.7,1.7 -3.6,2.5 -5.9,2.5 h -3.3 c -2.3,0 -4.3,-0.8 -5.9,-2.5 -1.7,-1.6 -2.5,-3.5 -2.5,-5.9 v -3.3 c 0,-2.3 0.8,-4.3 2.5,-5.9 1.6,-1.6 3.5,-2.4 5.9,-2.4 h 1.7 c 1.1,0 1.7,-0.5 1.7,-1.7 v -18.3 c 0,-1.1 -0.5,-1.7 -1.7,-1.7 -1.2,0 -1.7,0.5 -1.7,1.7 v 13.3 c 0,0.9 -0.3,1.7 -0.9,2.3 -0.7,0.7 -1.5,1 -2.4,1 h -1.7 c -0.9,0 -1.7,-0.3 -2.3,-1 -0.7,-0.6 -1,-1.4 -1,-2.3 v -15 c 0,-2.3 0.8,-4.3 2.5,-5.9 1.6,-1.6 3.5,-2.4 5.9,-2.4 h 3.3 c 2.3,0 4.3,0.8 5.9,2.4 1.6,1.7 2.4,3.6 2.4,5.9 v 33.3 z m -8.3,-1.7 c 0,-1.1 -0.5,-1.7 -1.7,-1.7 -1.2,0 -1.7,0.5 -1.7,1.7 0,1.2 0.5,1.7 1.7,1.7 1.2,0 1.7,-0.5 1.7,-1.7 z" />&#10;	<path
   id="path4583"
   inkscape:connector-curvature="0"
   class="st0"
   d="m 116.1,704.1 c 0,0.9 -0.3,1.7 -0.9,2.3 -0.7,0.7 -1.5,1 -2.4,1 h -1.7 c -0.9,0 -1.7,-0.3 -2.3,-1 -0.7,-0.6 -1,-1.4 -1,-2.3 v -13.3 c 0,-1.1 -0.5,-1.7 -1.7,-1.7 -1.1,0 -1.7,0.5 -1.7,1.7 v 36.7 c 0,0.9 -0.3,1.7 -0.9,2.3 -0.7,0.7 -1.5,1 -2.4,1 h -1.7 c -0.9,0 -1.7,-0.3 -2.3,-1 -0.7,-0.6 -1,-1.4 -1,-2.3 v -38.3 c 0,-2.3 0.8,-4.3 2.5,-5.9 1.6,-1.6 3.5,-2.4 5.9,-2.4 h 3.3 c 2.3,0 4.3,0.8 5.9,2.4 1.6,1.7 2.4,3.6 2.4,5.9 z" />&#10;	<path
   id="path4585"
   inkscape:connector-curvature="0"
   class="st0"
   d="m 139.4,722.4 c 0,2.3 -0.8,4.3 -2.4,5.9 -1.7,1.7 -3.6,2.5 -5.9,2.5 h -8.3 c -0.9,0 -1.7,-0.3 -2.3,-1 -0.7,-0.6 -1,-1.4 -1,-2.3 v -43.3 c 0,-0.9 0.3,-1.7 1,-2.4 0.6,-0.6 1.4,-0.9 2.3,-0.9 h 8.3 c 2.3,0 4.3,0.8 5.9,2.4 1.6,1.7 2.4,3.6 2.4,5.9 z m -8.4,-1.7 v -30 c 0,-1.1 -0.5,-1.7 -1.7,-1.7 -1.2,0 -1.7,0.5 -1.7,1.7 v 30 c 0,1.1 0.5,1.7 1.7,1.7 1.2,0 1.7,-0.5 1.7,-1.7 z" />&#10;	<path
   id="path4587"
   inkscape:connector-curvature="0"
   class="st0"
   d="m 162.7,722.4 c 0,2.3 -0.8,4.3 -2.4,5.9 -1.7,1.7 -3.6,2.5 -5.9,2.5 H 151 c -2.3,0 -4.3,-0.8 -5.9,-2.5 -1.7,-1.6 -2.5,-3.5 -2.5,-5.9 v -38.3 c 0,-0.9 0.3,-1.7 1,-2.4 0.6,-0.6 1.4,-0.9 2.3,-0.9 h 1.7 c 0.9,0 1.7,0.3 2.4,0.9 0.6,0.7 0.9,1.5 0.9,2.4 v 36.7 c 0,1.1 0.5,1.7 1.7,1.7 1.2,0 1.7,-0.5 1.7,-1.7 v -36.7 c 0,-0.9 0.3,-1.7 1,-2.4 0.6,-0.6 1.4,-0.9 2.3,-0.9 h 1.7 c 0.9,0 1.7,0.3 2.4,0.9 0.6,0.7 0.9,1.5 0.9,2.4 v 38.3 z" />&#10;	<path
   id="path4589"
   inkscape:connector-curvature="0"
   class="st0"
   d="m 186,722.4 c 0,2.3 -0.8,4.3 -2.4,5.9 -1.7,1.7 -3.6,2.5 -5.9,2.5 h -8.3 c -0.9,0 -1.7,-0.3 -2.3,-1 -0.7,-0.6 -1,-1.4 -1,-2.3 v -1.7 c 0,-0.9 0.3,-1.7 1,-2.4 0.6,-0.6 1.4,-0.9 2.3,-0.9 h 6.7 c 1.1,0 1.7,-0.5 1.7,-1.7 0,-1.2 -0.5,-1.7 -1.7,-1.7 h -1.7 c -2.3,0 -4.3,-0.8 -5.9,-2.5 -1.7,-1.6 -2.5,-3.5 -2.5,-5.9 V 689 c 0,-2.3 0.8,-4.3 2.5,-5.9 1.6,-1.6 3.5,-2.4 5.9,-2.4 h 3.3 c 2.3,0 4.3,0.8 5.9,2.4 1.6,1.7 2.4,3.6 2.4,5.9 v 15 c 0,0.9 -0.3,1.7 -0.9,2.3 -0.7,0.7 -1.5,1 -2.4,1 H 181 c -0.9,0 -1.7,-0.3 -2.3,-1 -0.7,-0.6 -1,-1.4 -1,-2.3 v -13.3 c 0,-1.1 -0.5,-1.7 -1.7,-1.7 -1.2,0 -1.7,0.5 -1.7,1.7 V 709 c 0,1.1 0.5,1.7 1.7,1.7 h 1.7 c 2.3,0 4.3,0.8 5.9,2.4 1.6,1.7 2.4,3.6 2.4,5.9 z m -39.5,-28.9 z" />&#10;</g>&#10;<g
   id="g3"
   transform="matrix(1.7048447,0,0,1.7048447,-630.05292,-783.48648)"><g
     id="g198"
     transform="matrix(2.1624817,0,0,2.1624817,-124.90239,-9130.9368)"><polygon
       class="cls-3"
       points="1906,1607.3 1906.1,1607.4 2058.5,1514.3 2058.5,1430.3 1906.1,1375.9 1906,1375.9 1905.9,1375.9 1753.5,1430.3 1753.5,1514.3 1905.9,1607.4 "
       id="polygon191"
       style="fill:#f9f9f9"
       transform="matrix(0.08205223,0,0,0.08205223,106.9817,4369.0938)" /><polygon
       class="cls-3"
       points="1876.6,1245.2 1776.9,1139.7 2035.2,1139.7 1935.4,1245.2 1939.4,1331 2137.8,1409.5 2207.8,1343.1 2045,1212.3 2235.5,1316.8 2254.8,1298.5 2143.8,1073.9 1906,989 1668.2,1073.9 1557.2,1298.5 1576.6,1316.8 1767,1212.3 1604.3,1343.1 1674.3,1409.5 1872.6,1331 "
       id="polygon192"
       style="fill:#f9f9f9"
       transform="matrix(0.08205223,0,0,0.08205223,106.9817,4369.0938)" /><polygon
       class="cls-4"
       points="1906,1375.9 1905.9,1375.9 1753.5,1430.3 1753.5,1514.3 1905.9,1607.3 1906,1607.3 "
       id="polygon193"
       style="fill:#f9f9f9"
       transform="matrix(0.08205223,0,0,0.08205223,106.9817,4369.0938)" /><polygon
       class="cls-4"
       points="1776.9,1139.7 1906,1139.7 1906,989 1668.2,1073.9 1557.2,1298.5 1576.6,1316.8 1767,1212.3 1604.3,1343.1 1674.3,1409.5 1872.6,1331 1876.6,1245.2 "
       id="polygon194"
       style="fill:#f9f9f9"
       transform="matrix(0.08205223,0,0,0.08205223,106.9817,4369.0938)" /><polygon
       class="cls-6"
       points="1507.9,839.8 1629.3,938 1754.2,938 1743.5,995.1 1816.7,934.4 "
       id="polygon195"
       style="opacity:0.88;fill:#f9f9f9"
       transform="matrix(0.08205223,0,0,0.08205223,106.9817,4369.0938)" /><polygon
       class="cls-7"
       points="1816.7,934.4 1741.7,839.8 1507.9,839.8 "
       id="polygon196"
       style="fill:#f9f9f9"
       transform="matrix(0.08205223,0,0,0.08205223,106.9817,4369.0938)" /><polygon
       class="cls-6"
       points="2304.2,839.8 2182.8,938 2057.9,938 2068.6,995.1 1995.4,934.4 "
       id="polygon197"
       style="opacity:0.88;fill:#f9f9f9"
       transform="matrix(0.08205223,0,0,0.08205223,106.9817,4369.0938)" /><polygon
       class="cls-7"
       points="1995.4,934.4 2070.4,839.8 2304.2,839.8 "
       id="polygon198"
       style="fill:#f9f9f9"
       transform="matrix(0.08205223,0,0,0.08205223,106.9817,4369.0938)" /></g></g></svg>
