<?xml version="1.0" encoding="utf-8"?>
<!-- Generator: Adobe Illustrator 23.0.3, SVG Export Plug-In . SVG Version: 6.00 Build 0)  -->
<svg version="1.1"
	 id="svg5048" inkscape:export-filename="logo.png" inkscape:export-xdpi="96" inkscape:export-ydpi="96" inkscape:version="1.2.2 (732a01da63, 2022-12-09)" sodipodi:docname="logo-text-version.svg" xmlns:inkscape="http://www.inkscape.org/namespaces/inkscape" xmlns:sodipodi="http://sodipodi.sourceforge.net/DTD/sodipodi-0.dtd" xmlns:svg="http://www.w3.org/2000/svg"
	 xmlns="http://www.w3.org/2000/svg" xmlns:xlink="http://www.w3.org/1999/xlink" x="0px" y="0px" viewBox="0 0 710 256"
	 style="enable-background:new 0 0 710 256;" xml:space="preserve">
<style type="text/css">
	.st0{fill:#F9F9F9;}
	.st1{enable-background:new    ;}
	.st2{opacity:0.88;fill:#F9F9F9;enable-background:new    ;}
</style>
<g>
	<g id="g2" transform="matrix(1.7045887,0,0,1.7045887,-1893.9876,553.01989)">
		<path id="path2" class="st0" d="M1295.2-241.6c0,6.9-5.6,12.6-12.5,12.6c0,0,0,0-0.1,0h-2.6c-1.2-0.2-2.4,0.7-2.6,1.9
			c0,0.2,0,0.4,0,0.6v10.1c0,2.8-2.2,5-5,5h-0.1h-2.5c-1.3,0-2.6-0.5-3.6-1.5c-1-0.9-1.5-2.2-1.5-3.6v-58.4
			c-0.1-3.4,1.3-6.6,3.7-8.9c2.4-2.4,5.6-3.7,9-3.7h5.1c6.9,0,12.5,5.7,12.5,12.6v33.3H1295.2z M1282.5-244.3v-27.9
			c0.1-1.2-0.8-2.3-2-2.5c-0.2,0-0.4,0-0.6,0c-1.2-0.2-2.4,0.7-2.6,1.9c0,0.2,0,0.4,0,0.6v27.8c-0.2,1.2,0.7,2.4,1.9,2.5
			c0.2,0,0.4,0,0.6,0c1.2,0.2,2.4-0.7,2.6-1.9C1282.6-243.8,1282.6-244,1282.5-244.3z"/>
		<path id="path3" class="st0" d="M1332.7-223.9c0,6.9-5.6,12.6-12.5,12.6h-0.1h-5.2c-6.9,0-12.6-5.6-12.6-12.5v-0.1v-5.1
			c0-6.9,5.6-12.6,12.5-12.6h0.1h2.6c1.2,0.2,2.4-0.7,2.6-1.9c0-0.2,0-0.4,0-0.6v-28c0.1-1.4-1-2.6-2.4-2.7s-2.6,1-2.7,2.4
			c0,0.1,0,0.2,0,0.3v20.3c0,2.8-2.2,5-5,5.1h-0.1h-2.5c-2.8,0-5-2.2-5.1-5v-0.1v-22.8c0-7,5.6-12.6,12.5-12.7c0,0,0,0,0.1,0h5.2
			c3.4-0.1,6.6,1.3,9,3.7c2.4,2.4,3.7,5.7,3.6,9V-223.9z M1320.1-226.5c0-1.4-1.1-2.5-2.5-2.5s-2.5,1.1-2.5,2.5s1.1,2.5,2.5,2.5l0,0
			c1.2,0.2,2.4-0.7,2.5-1.9C1320.1-226.1,1320.1-226.3,1320.1-226.5z"/>
		<path id="path4" class="st0" d="M1370.2-251.9c0,1.4-0.5,2.7-1.5,3.6c-0.9,1-2.2,1.5-3.6,1.5h-2.5c-1.3,0-2.6-0.5-3.6-1.5
			s-1.5-2.3-1.5-3.6v-20.3c0-1.4-1.2-2.6-2.6-2.6s-2.6,1.2-2.6,2.6v55.8c0,1.3-0.5,2.7-1.5,3.6c-0.9,1-2.2,1.5-3.6,1.5h-2.5
			c-1.3,0-2.6-0.5-3.6-1.5c-1-0.9-1.5-2.2-1.5-3.6v-58.3c0-7,5.6-12.7,12.6-12.7h0.1h5.1c7,0,12.7,5.7,12.6,12.7l0,0L1370.2-251.9z"
			/>
		<path id="path5" class="st0" d="M1407.8-223.9c0,6.9-5.6,12.6-12.5,12.6h-0.1h-12.7c-2.8,0.1-5.1-2.2-5.1-4.9v-0.1v-65.9
			c0-2.8,2.2-5.1,5-5.1h0.1h12.7c6.9,0,12.6,5.6,12.6,12.6c0,0,0,0,0,0.1V-223.9z M1395.1-226.5v-45.6c0-1.4-1.2-2.6-2.6-2.6
			s-2.6,1.2-2.6,2.6v45.6c0,1.4,1.2,2.6,2.6,2.6C1394-223.9,1395.1-225.1,1395.1-226.5L1395.1-226.5z"/>
		<path id="path6" class="st0" d="M1445.3-223.9c0,6.9-5.6,12.6-12.5,12.6h-0.1h-5.2c-6.9,0-12.6-5.6-12.6-12.5v-0.1v-58.4
			c0-2.8,2.2-5.1,5-5.1c0,0,0,0,0.1,0h2.5c2.8,0,5,2.2,5.1,5v0.1v55.8c0.1,1.4,1.3,2.5,2.7,2.4c1.3-0.1,2.3-1.1,2.4-2.4v-55.8
			c0-2.8,2.2-5,5-5.1h0.1h2.5c2.8,0,5.1,2.2,5.1,5c0,0,0,0,0,0.1L1445.3-223.9z"/>
		<path id="path7" class="st0" d="M1482.8-223.9c0,6.9-5.6,12.6-12.6,12.6c0,0,0,0-0.1,0h-12.7c-2.8,0.1-5.1-2.2-5.1-4.9v-0.1v-2.5
			c0-2.8,2.2-5,5-5.1h0.1h10.1c1.4,0.1,2.6-1,2.7-2.3c0.1-1.4-1-2.6-2.3-2.7c-0.1,0-0.2,0-0.3,0h-2.6c-6.9,0-12.6-5.6-12.6-12.6
			c0,0,0,0,0-0.1v-33.1c0-7,5.6-12.6,12.6-12.6c0,0,0,0,0.1,0h5.2c7,0,12.6,5.6,12.6,12.6l0,0v22.9c0,2.8-2.2,5-5,5.1h-0.1h-2.5
			c-2.8,0-5-2.2-5.1-5v-0.1v-20.3c-0.1-1.4-1.3-2.5-2.7-2.4c-1.3,0.1-2.3,1.1-2.4,2.4v27.9c-0.2,1.2,0.7,2.4,1.9,2.5
			c0.2,0,0.4,0,0.6,0h2.6c3.4-0.1,6.6,1.3,8.9,3.7c2.4,2.4,3.7,5.6,3.7,9L1482.8-223.9z"/>
		
			<sodipodi:namedview  bordercolor="#666666" borderopacity="1.0" id="base" inkscape:current-layer="svg5048" inkscape:cx="803.2733" inkscape:cy="-325.26912" inkscape:deskcolor="#d1d1d1" inkscape:document-units="px" inkscape:pagecheckerboard="0" inkscape:pageopacity="0.0" inkscape:pageshadow="2" inkscape:showpageshadow="2" inkscape:window-height="1009" inkscape:window-maximized="1" inkscape:window-width="1920" inkscape:window-x="-8" inkscape:window-y="-8" inkscape:zoom="0.35355339" pagecolor="#ffffff" showgrid="false">
			
				<inkscape:grid  empspacing="5" enabled="true" id="grid3011" originx="0" originy="0" snapvisiblegridlinesonly="true" spacingx="1" spacingy="1" type="xygrid" units="px" visible="false">
				</inkscape:grid>
		</sodipodi:namedview>
	</g>
	<g id="g17" class="st1">
		<path id="path13" class="st0" d="M669.8,128.2c0,1.2-0.4,2.3-1.2,3.1c-0.9,0.9-2,1.4-3.2,1.4h-17.9c-1.2,0-2.3-0.5-3.1-1.4
			c-0.9-0.8-1.4-1.8-1.4-3.1V117c0-3.1,1.1-5.8,3.3-8c2.1-2.1,4.8-3.2,7.8-3.2h2.2c1.5,0,2.2-0.8,2.2-2.3V79.1
			c0-1.5-0.7-2.2-2.2-2.2s-2.2,0.7-2.2,2.2V97c0,1.2-0.4,2.3-1.3,3.1c-0.9,0.9-1.9,1.4-3.2,1.4h-2.3c-1.2,0-2.3-0.4-3.1-1.4
			c-0.9-0.8-1.4-1.8-1.4-3.1V76.8c0-3.1,1.1-5.7,3.3-7.9c2.1-2.1,4.8-3.2,7.8-3.2h4.4c3.1,0,5.8,1.1,8,3.2c2.1,2.2,3.2,4.9,3.2,7.9
			v29c0,3.1-1.1,5.7-3.2,7.8c-2.2,2.2-4.9,3.3-8,3.3h-2.2c-1.5,0-2.2,0.7-2.2,2.2s0.7,2.2,2.2,2.2h8.9c1.2,0,2.3,0.4,3.2,1.3
			c0.8,0.9,1.2,1.9,1.2,3.2v2.4H669.8z"/>
		<path id="path15" class="st0" d="M701.1,121.5c0,3.1-1.1,5.7-3.2,7.8c-2.2,2.2-4.9,3.3-8,3.3h-11.2c-1.2,0-2.3-0.5-3.1-1.4
			c-0.9-0.8-1.4-1.8-1.4-3.1v-2.3c0-1.2,0.5-2.3,1.4-3.2c0.8-0.8,1.8-1.3,3.1-1.3h8.9c1.5,0,2.2-0.7,2.2-2.2s-0.7-2.2-2.2-2.2h-8.9
			c-1.2,0-2.3-0.4-3.1-1.4c-0.9-0.8-1.4-1.9-1.4-3.1v-2.2c0-1.2,0.5-2.3,1.4-3.2c0.8-0.8,1.8-1.2,3.1-1.2h8.9c1.5,0,2.2-0.8,2.2-2.3
			V79.1c0-1.5-0.7-2.2-2.2-2.2s-2.2,0.7-2.2,2.2V97c0,1.2-0.4,2.3-1.3,3.1c-0.9,0.9-1.9,1.4-3.2,1.4h-2.3c-1.2,0-2.3-0.4-3.1-1.4
			c-0.9-0.8-1.4-1.8-1.4-3.1V76.8c0-3.1,1.1-5.7,3.3-7.9c2.1-2.1,4.8-3.2,7.8-3.2h4.4c3.1,0,5.8,1.1,8,3.2c2.1,2.2,3.2,4.9,3.2,7.9
			v26.7c0,3-1.1,5.6-3.2,7.8c2.1,2.2,3.2,4.8,3.2,7.8v2.4H701.1z"/>
	</g>
	<g id="g1" transform="matrix(1.7048447,0,0,1.7048447,-628.4066,-782.83003)">
		<g id="g198" transform="matrix(2.1624817,0,0,2.1624817,-124.90239,-9130.9368)">
			<polygon id="polygon191" class="st0" points="250.9,4493.3 263.4,4501 263.4,4501 263.4,4501 275.9,4493.3 275.9,4486.5 
				263.4,4482 263.4,4482 263.4,4482 250.9,4486.5 			"/>
			<polygon id="polygon192" class="st0" points="274.8,4468.6 290.4,4477.1 292,4475.6 282.9,4457.2 263.4,4450.2 243.9,4457.2 
				234.8,4475.6 236.3,4477.1 252,4468.6 238.6,4479.3 244.4,4484.7 260.6,4478.3 261,4471.3 252.8,4462.6 274,4462.6 265.8,4471.3 
				266.1,4478.3 282.4,4484.7 288.1,4479.3 			"/>
			<polygon id="polygon193" class="st0" points="263.4,4482 263.4,4482 250.9,4486.5 250.9,4493.3 263.4,4501 263.4,4501 			"/>
			<polygon id="polygon194" class="st0" points="261,4471.3 252.8,4462.6 263.4,4462.6 263.4,4450.2 243.9,4457.2 234.8,4475.6 
				236.3,4477.1 252,4468.6 238.6,4479.3 244.4,4484.7 260.6,4478.3 			"/>
			<polygon id="polygon195" class="st2" points="250,4450.7 256,4445.8 230.7,4438 240.7,4446.1 250.9,4446.1 			"/>
			<polygon id="polygon196" class="st0" points="256,4445.8 249.9,4438 230.7,4438 			"/>
			<polygon id="polygon197" class="st2" points="276.7,4450.7 270.7,4445.8 296,4438 286.1,4446.1 275.8,4446.1 			"/>
			<polygon id="polygon198" class="st0" points="270.7,4445.8 276.9,4438 296,4438 			"/>
		</g>
	</g>
</g>
</svg>
