<?xml version="1.0" encoding="utf-8"?>
<!-- Generator: Adobe Illustrator 25.4.1, SVG Export Plug-In . SVG Version: 6.00 Build 0)  -->
<svg version="1.1" id="Layer_1" xmlns="http://www.w3.org/2000/svg" xmlns:xlink="http://www.w3.org/1999/xlink" x="0px" y="0px"
	 viewBox="0 0 1280 1024" style="enable-background:new 0 0 1280 1024;" xml:space="preserve">
<style type="text/css">
	.st0{fill:#12373F;}
	.st1{fill:url(#SVGID_1_);}
	.st2{opacity:0.4;fill:url(#SVGID_00000040572836737441466920000017106332639012086966_);}
	.st3{opacity:0.3;fill:url(#SVGID_00000166637696614845499610000005652305337454587070_);}
	.st4{opacity:0.2;fill:#7C8B99;}
	.st5{opacity:0.1;fill:#7C8B99;}
	.st6{fill:#396477;}
	.st7{fill:#194B5B;}
	.st8{opacity:0.4;fill:#7C8B99;}
</style>
<g>
	<rect y="-0.5" class="st0" width="1280" height="1024"/>
	<g>
		
			<radialGradient id="SVGID_1_" cx="1163.7328" cy="212.7728" r="167.0176" fx="1135.0081" fy="209.025" gradientTransform="matrix(0.838 0.5452 -0.5457 0.8372 229.6621 -319.1201)" gradientUnits="userSpaceOnUse">
			<stop  offset="0" style="stop-color:#FFFFFF"/>
			<stop  offset="0.6344" style="stop-color:#EDEDED"/>
			<stop  offset="1" style="stop-color:#E1E0E0"/>
		</radialGradient>
		<path class="st1" d="M1159.6,645.9c-70.3,38.7-158.6,13.2-197.4-57c-38.7-70.2-13.2-158.5,57.1-197.2
			c70.3-38.7,158.7-13.2,197.4,57C1255.5,518.9,1229.9,607.2,1159.6,645.9z"/>
		
			<radialGradient id="SVGID_00000119805835650160543750000006388867519624691870_" cx="1178.1678" cy="233.6186" r="145.3041" gradientTransform="matrix(0.838 0.5452 -0.5457 0.8372 229.6621 -319.1201)" gradientUnits="userSpaceOnUse">
			<stop  offset="0" style="stop-color:#FFFFFF"/>
			<stop  offset="0.6344" style="stop-color:#EDEDED"/>
			<stop  offset="1" style="stop-color:#E1E0E0"/>
		</radialGradient>
		<path style="opacity:0.4;fill:url(#SVGID_00000119805835650160543750000006388867519624691870_);" d="M1134,380.5
			c44.3,15.6,78.6,54.9,85.4,104.6c9.7,70.8-39.9,136-110.8,145.7c-70.9,9.7-136.1-39.9-145.8-110.7c-9.6-70.2,39.1-134.9,109-145.4
			c-0.6,0.1-1.2,0.1-1.8,0.2c-79.5,10.8-135.2,84-124.3,163.5c10.8,79.4,84.1,135.1,163.6,124.2c79.5-10.8,135.2-84,124.3-163.5
			C1225.6,442,1185.5,397.1,1134,380.5z"/>
		
			<radialGradient id="SVGID_00000084515050952130810330000008736926705845062807_" cx="1140.6086" cy="160.2829" r="107.8184" gradientTransform="matrix(0.7918 0.6102 -0.6108 0.791 287.3695 -342.3982)" gradientUnits="userSpaceOnUse">
			<stop  offset="0" style="stop-color:#FFFFFF"/>
			<stop  offset="0.6344" style="stop-color:#EDEDED"/>
			<stop  offset="1" style="stop-color:#E1E0E0"/>
		</radialGradient>
		<path style="opacity:0.3;fill:url(#SVGID_00000084515050952130810330000008736926705845062807_);" d="M1205.1,474.2
			c3.2,56.6-44.7,105.3-106.8,108.7c-62.1,3.5-115.1-39.6-118.2-96.2c-3.2-56.6,44.7-105.3,106.8-108.7
			C1149,374.5,1201.9,417.6,1205.1,474.2z"/>
	</g>
	<g>
		<path class="st4" d="M1280,628.8c-7.5-7.7-18-12.4-29.4-12.4c-4.2-29.5-30.4-51.3-60.6-49.4c-4.2,0.3-8.3,1-12.2,2.1
			c-11.6-21.7-35.1-35.7-61.3-34.1c-21.1,1.3-39.1,12.5-50,28.8c-7.8-3.1-16.4-4.5-25.4-4c-27.7,1.7-49.8,22.2-54.7,48.3
			c-26.2,1.9-46.1,24.6-44.4,50.8c0.5,8.3,3.1,15.9,7.2,22.4H1280V628.8z"/>
		<path class="st5" d="M1280,576.3c-0.3,0-0.6,0.1-0.9,0.1c-3.2-36.5-33.9-65.1-71.3-65.1c-39,0-70.7,31.2-71.5,70
			c-17.3,8.4-29.2,26-29.2,46.5c0,6,1,11.8,3,17.2H1280V576.3z"/>
	</g>
	<path class="st6" d="M1280,1023.5V622.9C441.4,622.9,143.5,886,45.1,1023.5H1280z"/>
	<path class="st7" d="M45.1,1023.5c49.4-69.1,149.2-169.8,342.6-253c-91.2-35-222.1-72.1-387.3-84.6v337.6H45.1z"/>
	<path class="st0" d="M387.7,770.5L387.7,770.5c0,0-251.5,57.6-387.3,253h44.7C94.5,954.5,194.3,853.7,387.7,770.5z"/>
	<path class="st8" d="M945.5,538.4c-2.5-18.3-1.5-36.2,2.6-53.1c-7.7-7.9-18.4-12.7-30.2-12.7c-23.3,0-42.2,18.9-42.2,42.2
		c0,0,0,0.1,0,0.1c-3.5-0.9-7.1-1.5-10.9-1.5c-23.1,0-41.8,18.7-41.8,41.8c0,5.4,1,10.5,2.9,15.2c-12.7,9.2-21.1,24.2-21.1,41.1
		c0,2.8,0.3,5.5,0.7,8.1c-9.1-5.2-19.6-8.1-30.8-8.1c-34.2,0-62,27.4-62.5,61.5c85.7-17.1,181.5-30.6,288.6-39.2
		C971.5,611.2,950.9,577.7,945.5,538.4z"/>
	<path class="st5" d="M147.9,704.5c0.6-2.4,1-4.9,1-7.5c0-16.2-13.1-29.3-29.3-29.3c-6.7,0-12.9,2.3-17.9,6.1
		c-3.9-10.6-14.1-18.2-26.1-18.2c-1.6,0-3.2,0.2-4.8,0.4c0.2-1.6,0.3-3.2,0.3-4.8c0-24.9-20.2-45.1-45.1-45.1
		c-9.5,0-18.3,2.9-25.5,7.9v71.8C53.1,689.9,102.3,696.4,147.9,704.5z"/>
	<path class="st7" d="M1045,636.2c1.6,1.2,3.8,1.2,5.4-0.1c0.4-0.3,0.8-0.7,1.3-0.6c0.8,0.1,1.1,1.5,1,2.6c-0.1,6.3-0.2,12-0.1,18.3
		c0.1,3.9-0.7,7.8-1.3,11.6c-0.6,3.8-0.9,7.8-0.1,11.6c-2.8,4.9-5.6,9.8-7.3,15.4c-1.8,5.6-2,11.7-0.4,17.5
		c-2.6,4.4-4.4,9.6-4.9,15.1c-0.9,1.3-1.9,2.5-3.1,3.3c-1.2,0.8-2.8,1.1-4.1,0.4c-0.9-0.5-1.7-1.4-2.5-2.1c-1.7-1.4-4.2-1.6-5.3,0.4
		c-0.3,0.5-0.4,1-0.6,1.6c-0.5,1.4-1.5,2.4-2.4,3.6c-0.8,1.1-1.6,2.6-1.5,4.1c0.1,1.8,1.3,3.3,2.4,4.5c1.2,1.4,2.5,2.8,3.7,4.3
		c0.4,1.8,0.3,4,0.7,5.8c0.1,0.5,0.2,1.1,0.5,1.5c0.3,0.5,0.8,0.8,1.3,1.1c2.8,1.5,5.8,2.3,8.8,2.6c0.1,0.8,0.5,1.6,0.8,2.3
		c0.7,1.5,1.7,2.8,2.7,4.1c0.8-1.5,1.4-3.2,1.6-5c1,1.8,2.4,3.2,4,4.1c0.2,0.1,0.4,0.2,0.6,0.1c0.1-0.1,0.2-0.3,0.2-0.5
		c1-3.3,0.2-7.5,1.6-10.6c2.9-6,6.9-12.2,12.2-14.8c3.1-1.5,6-3.8,8.4-6.7c2-2.3,3.6-5,5.8-7.1c2.5-2.4,5.4-3.9,8.4-5.3
		c3.7-1.8,7.3-4.2,11.4-4.1c14.8-4.9,32.1,2.2,45.7-6.2c3.5-2.2,7.2-4.4,9.8-8.1c-0.1,0.1-0.1,0.2-0.2,0.3c1-1.1,2.1-2.1,3.2-3.2
		c5.8-5.5,11.2-9.2,16.5-11.1c6.6-2.4,13.2-2.1,18.8,0.7c4.4,2.3,7.8,6.1,9.1,10.5c1.6,5.2,0,11.1-3.4,13.2c-0.5,0.3-0.9,1-1.1,1.9
		c-0.1,1,0,1.9,0.5,2.6c0.8,1.2,2.4,1.6,3.7,0.9c3.9-2.4,5-8.4,5.3-11.7c0.4-4.6-0.6-9.5-2.9-13.4c-4.5-7.7-13.1-12.5-22-12.1
		c-0.1,0-0.1,0-0.2,0c-8,0.4-15.5,5-21.9,9.5c-0.1,0.2-0.1,0.4-0.2,0.6c1.2-3.5,2.3-7.4,3.8-10.5c3.4-6.9,9.3-11.3,15-15.2
		c1.8-1.2,3.9-2.5,6-2c1.5-2.6,2.4-6.7,2-9.9c-1-7.6-1-15.5-0.5-23.1l-4.1-4.4c-5.2,0.1-10.5,0.3-15.7,0.5c0.5,2.7,1.9,5.5,3.9,6.9
		c1.7,1.2,3.8,0.9,5.6,0c0.3-0.1,0.5-0.3,0.8-0.2c0.4,0.1,0.6,0.7,0.7,1.2c1.5,6,1.3,12.2-0.3,18.1c-5.7,2.9-12.3,0.5-18.6,0.4
		c-9.2-0.1-18.5,4.7-24,13.6c-1.7-1.9-2.6-4.8-2.8-7.7c-0.2-2.8,0.5-5.9,0.9-8.6c-2.2-5.4-11.4-15.8-11.4-15.8l-2.1-6.1
		c-5.4,0.2-11.5,0.5-16.8,0.8c-0.5,2.3,0.9,4.9,2.4,6.5c1.6,1.7,4,2,5.8,0.9c0.8-0.5,1.6-1.4,2.5-1c0.5,0.2,0.9,0.8,1.2,1.4
		c2.6,4.4,5.6,8.6,6.1,14c0.2,2.6-1.1,4.9-2.6,6.7c-1.5,1.8-3.2,3.5-3.9,5.9c-0.5,1.7-0.4,3.7,0.2,5.4c-10-2.4-20.3-2.9-30.4-1.4
		c-0.2,0-0.5,0.1-0.7,0.1c-1.8-3.7-3.9-7.4-4.9-11.5c-1.5-6.5-1.8-13-1.2-19.5l-3.8-5.9l-9.4,0.6c-5.5,0.3-11.1,0.7-16.5,1.1
		C1042.2,632.8,1043.4,635,1045,636.2z M1154.5,690.2c-0.2,0.5-0.3,1-0.5,1.4C1154.1,691.2,1154.3,690.7,1154.5,690.2z
		 M1060.7,636.1c0.3-0.1,0.5-0.3,0.8-0.5c0.4-0.3,0.8-0.7,1.3-0.6c0.8,0.1,1.1,1.5,1,2.6c-0.1,6.3-0.2,12-0.1,18.3
		c0,1.3,0,2.6-0.2,3.9c-0.7-1.5-1.2-3.1-1.6-4.8C1060.5,648.7,1060.2,642.4,1060.7,636.1z"/>
	<path class="st7" d="M1071,625.3c-1.2-5.2-1.6-10.4-0.8-15.7c0.5-3.4,2.2-6.4,3.6-9.6c0.2,0,0.5,0,0.7,0
		c10.1,0.4,20.2-0.9,29.9-3.7c-0.5,1.4-0.3,3,0.4,4.3c0.9,1.9,2.8,3.1,4.4,4.4c1.6,1.3,3.2,3.1,3.3,5.2c0.1,4.3-2.5,8-4.6,11.7
		c-0.3,0.5-0.6,1-1.1,1.2c-0.8,0.4-1.8-0.2-2.6-0.6c-1.9-0.8-4.2-0.3-5.6,1.2c-0.9,1-1.4,2.3-1.4,3.6c5.6-0.3,11.1-0.5,16.8-0.8
		l1-3.3c0,0,8.1-9.1,9.7-13.6c-0.7-2.2-1.7-4.5-1.8-6.8c-0.1-2.3,0.5-4.7,2-6.4c6.3,6.6,16,9.8,25.1,8.9c6.2-0.6,12.5-3.1,18.4-1.3
		c2.1,4.6,2.9,9.5,2.1,14.4c-0.1,0.4-0.2,0.9-0.6,1c-0.3,0.1-0.5,0-0.8-0.1c-1.8-0.6-4-0.7-5.5,0.4c-1.5,1.1-2.1,3-2.4,4.9
		c5.2-0.2,10.4-0.3,15.7-0.5l2.7-3.4c-1.2-6-2.1-12.4-1.8-18.5c0.1-2.6-1.3-5.8-3-7.8c-2,0.6-4.2-0.3-6.1-1.1
		c-6.1-2.6-12.3-5.7-16.4-10.9c-1.9-2.4-3.3-5.3-4.8-8.1c0.1,0.2,0.2,0.3,0.3,0.4c6.8,3,14.7,6.1,22.6,5.7c0.1,0,0.1,0,0.2,0
		c8.8-0.5,16.9-5,20.6-11.6c1.8-3.3,2.4-7.3,1.5-11c-0.6-2.6-2.4-7.3-6.5-8.9c-1.3-0.5-2.8-0.1-3.5,1c-0.4,0.6-0.4,1.4-0.2,2.1
		c0.2,0.7,0.7,1.2,1.3,1.4c3.6,1.4,5.8,6,4.7,10.3c-0.9,3.7-3.8,7-7.9,9.2c-5.2,2.7-11.8,3.5-18.5,2.2c-5.4-1.1-11.2-3.5-17.5-7.4
		c-1.2-0.7-2.3-1.5-3.5-2.3c0.1,0.1,0.2,0.1,0.2,0.2c-2.9-2.7-6.8-4.2-10.5-5.7c-14.3-5.5-30.7,1.6-45.8-1c-4,0.4-7.8-1.2-11.7-2.3
		c-3.1-0.9-6.2-1.8-8.8-3.5c-2.3-1.5-4.3-3.5-6.4-5.2c-2.7-2.1-5.7-3.7-9-4.6c-5.5-1.6-10.1-6.2-13.6-10.8c-1.7-2.3-1.4-5.7-2.7-8.3
		c-0.1-0.1-0.1-0.3-0.3-0.3c-0.2-0.1-0.4,0-0.6,0.1c-1.5,0.8-2.8,2.1-3.6,3.6c-0.4-1.4-1.1-2.7-2.1-3.8c-0.8,1.1-1.7,2.2-2.3,3.5
		c-0.2,0.5-0.6,1.3-0.6,1.9c-3,0.5-5.8,1.4-8.4,2.9c-0.5,0.3-0.9,0.5-1.2,1c-0.2,0.4-0.3,0.8-0.3,1.2c-0.2,1.5,0.1,3.2-0.1,4.7
		c-1.1,1.2-2.1,2.5-3.2,3.7c-1,1.1-2,2.4-1.9,3.8c0.1,1.3,1,2.3,1.9,3.2c1,0.8,2,1.6,2.7,2.7c0.2,0.4,0.4,0.8,0.7,1.2
		c1.2,1.5,3.7,1.1,5.2-0.1c0.8-0.6,1.4-1.4,2.3-1.9c1.2-0.7,2.8-0.6,4.1-0.1c1.3,0.5,2.4,1.4,3.4,2.4c1.1,4.4,3.3,8.3,6.4,11.6
		c-1.1,4.8-0.1,9.7,2.2,14s5.6,8,8.8,11.7c-0.5,3.1,0.3,6.3,1.2,9.3c1,3,2.2,6,2.5,9.2c0.5,5,1.3,9.6,1.9,14.6c0.1,0.8,0,2-0.8,2.1
		c-0.5,0.1-0.9-0.2-1.4-0.4c-1.7-0.9-3.8-0.7-5.3,0.4c-1.3,0.9-2,2.5-2,4c8.6-0.6,17.2-1.1,26-1.6L1071,625.3z M1147.1,574
		c-0.2-0.4-0.4-0.8-0.7-1.1C1146.7,573.2,1146.9,573.6,1147.1,574z M1062,626c-0.5,0.1-0.9-0.2-1.4-0.4c-0.3-0.1-0.6-0.2-0.8-0.3
		c-1.1-5-1.5-10.1-0.7-15.2c0.2-1.4,0.6-2.7,1.1-4c0.3,1,0.5,2.1,0.6,3.1c0.5,5,1.3,9.6,1.9,14.6
		C1062.9,624.7,1062.8,625.8,1062,626z"/>
</g>
</svg>
