<?xml version="1.0" encoding="utf-8"?>
<!-- Generator: Adobe Illustrator 25.4.1, SVG Export Plug-In . SVG Version: 6.00 Build 0)  -->
<svg version="1.1" id="Layer_1" xmlns="http://www.w3.org/2000/svg" xmlns:xlink="http://www.w3.org/1999/xlink" x="0px" y="0px"
	 viewBox="0 0 1600 1200" style="enable-background:new 0 0 1600 1200;" xml:space="preserve">
<style type="text/css">
	.st0{fill:#12373F;}
	.st1{fill:url(#SVGID_1_);}
	.st2{opacity:0.4;fill:url(#SVGID_00000180367667079550418890000007398315288878429855_);}
	.st3{opacity:0.3;fill:url(#SVGID_00000145746730411835858530000016966462015612593538_);}
	.st4{opacity:0.2;fill:#7C8B99;}
	.st5{opacity:0.1;fill:#7C8B99;}
	.st6{fill:#396477;}
	.st7{fill:#194B5B;}
	.st8{opacity:0.4;fill:#7C8B99;}
</style>
<g>
	<rect x="0" class="st0" width="1600" height="1200"/>
	<g>
		
			<radialGradient id="SVGID_1_" cx="1393.463" cy="202.0921" r="208.8056" fx="1357.5513" fy="197.4066" gradientTransform="matrix(0.8378 0.5456 -0.5456 0.8379 303.6905 -392.7821)" gradientUnits="userSpaceOnUse">
			<stop  offset="0" style="stop-color:#FFFFFF"/>
			<stop  offset="0.6344" style="stop-color:#EDEDED"/>
			<stop  offset="1" style="stop-color:#E1E0E0"/>
		</radialGradient>
		<path class="st1" d="M1449.5,727.5c-87.8,48.4-198.3,16.5-246.7-71.3c-48.4-87.8-16.5-198.3,71.3-246.7
			c87.8-48.4,198.3-16.5,246.7,71.3C1569.3,568.6,1537.4,679.1,1449.5,727.5z"/>
		
			<radialGradient id="SVGID_00000070094767388573258400000004643542519548118173_" cx="1411.5096" cy="228.1536" r="181.6593" gradientTransform="matrix(0.8378 0.5456 -0.5456 0.8379 303.6905 -392.7821)" gradientUnits="userSpaceOnUse">
			<stop  offset="0" style="stop-color:#FFFFFF"/>
			<stop  offset="0.6344" style="stop-color:#EDEDED"/>
			<stop  offset="1" style="stop-color:#E1E0E0"/>
		</radialGradient>
		<path style="opacity:0.4;fill:url(#SVGID_00000070094767388573258400000004643542519548118173_);" d="M1417.4,395.5
			c55.4,19.5,98.2,68.6,106.7,130.9c12.1,88.6-49.9,170.2-138.5,182.3c-88.6,12.1-170.2-49.9-182.3-138.5
			c-12-87.8,48.9-168.7,136.2-181.9c-0.8,0.1-1.5,0.2-2.3,0.3c-99.4,13.6-169,105.1-155.4,204.5c13.6,99.4,105.1,169,204.5,155.4
			c99.4-13.6,169-105.1,155.4-204.5C1532,472.4,1481.9,416.3,1417.4,395.5z"/>
		
			<radialGradient id="SVGID_00000082362033556121367120000007248824271004305086_" cx="1361.0051" cy="141.1882" r="134.7947" gradientTransform="matrix(0.7916 0.6107 -0.6107 0.7916 374.5126 -422.429)" gradientUnits="userSpaceOnUse">
			<stop  offset="0" style="stop-color:#FFFFFF"/>
			<stop  offset="0.6344" style="stop-color:#EDEDED"/>
			<stop  offset="1" style="stop-color:#E1E0E0"/>
		</radialGradient>
		<path style="opacity:0.3;fill:url(#SVGID_00000082362033556121367120000007248824271004305086_);" d="M1506.4,512.7
			c4,70.8-55.8,131.7-133.5,136c-77.7,4.3-143.9-49.5-147.8-120.3c-3.9-70.8,55.8-131.7,133.5-136
			C1436.2,388,1502.4,441.9,1506.4,512.7z"/>
	</g>
	<g>
		<path class="st4" d="M1600,706.2c-9.4-9.6-22.5-15.5-36.8-15.5c-5.2-36.9-38-64.1-75.8-61.8c-5.3,0.3-10.4,1.2-15.2,2.6
			c-14.5-27.1-43.9-44.7-76.6-42.7c-26.3,1.7-48.9,15.7-62.5,36.1c-9.8-3.8-20.6-5.7-31.7-5c-34.7,2.2-62.3,27.8-68.4,60.4
			c-32.8,2.4-57.6,30.7-55.5,63.6c0.6,10.3,3.9,19.9,9,28.1H1600V706.2z"/>
		<path class="st5" d="M1600,640.4c-0.4,0-0.8,0.1-1.1,0.1c-4-45.7-42.4-81.5-89.1-81.5c-48.8,0-88.4,39.1-89.4,87.6
			c-21.6,10.5-36.5,32.6-36.5,58.2c0,7.6,1.3,14.8,3.7,21.5H1600V640.4z"/>
	</g>
	<path class="st6" d="M1600,1200V698.8C551.8,698.8,179.4,1028,56.4,1200H1600z"/>
	<path class="st7" d="M56.4,1200c61.8-86.4,186.5-212.5,428.3-316.6C370.7,839.7,207,793.2,0.5,777.6V1200H56.4z"/>
	<path class="st0" d="M484.6,883.4L484.6,883.4c0,0-314.4,72.1-484.1,316.6h55.8C118.2,1113.6,242.9,987.5,484.6,883.4z"/>
	<path class="st8" d="M1181.9,593c-3.1-22.9-1.8-45.3,3.2-66.5c-9.6-9.8-23-15.9-37.8-15.9c-29.2,0-52.8,23.6-52.8,52.8
		c0,0.1,0,0.1,0,0.2c-4.4-1.2-8.9-1.9-13.6-1.9c-28.8,0-52.2,23.4-52.2,52.2c0,6.7,1.3,13.1,3.6,19c-15.9,11.6-26.3,30.3-26.3,51.4
		c0,3.5,0.4,6.8,0.9,10.2c-11.4-6.5-24.5-10.2-38.5-10.2c-42.8,0-77.5,34.3-78.2,76.9c107.1-21.4,226.9-38.2,360.7-49.1
		C1214.4,684.1,1188.6,642.2,1181.9,593z"/>
	<path class="st5" d="M184.8,800.9c0.8-3,1.2-6.1,1.2-9.4c0-20.2-16.4-36.6-36.6-36.6c-8.4,0-16.2,2.9-22.3,7.7
		c-4.9-13.3-17.6-22.8-32.6-22.8c-2.1,0-4.1,0.2-6,0.6c0.2-2,0.3-4,0.3-6c0-31.1-25.2-56.4-56.4-56.4c-11.8,0-22.8,3.7-31.9,9.9
		v89.8C66.4,782.6,127.9,790.7,184.8,800.9z"/>
	<path class="st7" d="M1306.2,715.4c2.1,1.5,4.8,1.5,6.7-0.1c0.5-0.4,1-0.9,1.6-0.8c1.1,0.2,1.3,1.9,1.3,3.2
		c-0.1,7.9-0.3,15-0.1,22.9c0.1,4.9-0.9,9.7-1.6,14.5c-0.7,4.8-1.2,9.8-0.1,14.5c-3.5,6.1-7,12.3-9.2,19.3c-2.2,7-2.5,14.7-0.5,21.9
		c-3.3,5.5-5.4,12-6.1,18.9c-1.1,1.6-2.4,3.2-3.9,4.2s-3.5,1.3-5.1,0.4c-1.2-0.6-2.1-1.8-3.1-2.7c-2.1-1.7-5.3-2-6.6,0.5
		c-0.3,0.6-0.5,1.3-0.7,2c-0.7,1.8-1.9,3.1-3,4.5c-1.1,1.4-2,3.2-1.9,5.2c0.1,2.3,1.6,4.1,3,5.7c1.5,1.8,3.1,3.6,4.6,5.3
		c0.5,2.3,0.4,5,0.9,7.3c0.1,0.7,0.3,1.3,0.6,1.9c0.4,0.7,1.1,1,1.7,1.4c3.5,1.9,7.2,2.9,11,3.3c0.1,1,0.6,2,1,2.8
		c0.9,1.9,2.1,3.5,3.4,5.1c1-1.8,1.7-4,2-6.2c1.3,2.2,3,4,5.1,5.1c0.2,0.1,0.5,0.2,0.8,0.1c0.2-0.1,0.2-0.4,0.3-0.6
		c1.2-4.2,0.2-9.4,2-13.2c3.6-7.6,8.6-15.2,15.2-18.5c3.9-1.9,7.5-4.8,10.5-8.4c2.5-2.9,4.5-6.3,7.2-8.9c3.1-3,6.8-4.8,10.5-6.6
		c4.7-2.3,9.1-5.2,14.2-5.2c18.5-6.1,40.1,2.8,57.1-7.7c4.4-2.7,9-5.6,12.2-10.2c-0.1,0.1-0.2,0.2-0.3,0.4c1.3-1.4,2.6-2.7,4-4
		c7.3-6.9,14-11.5,20.6-13.9c8.2-3,16.5-2.6,23.5,0.9c5.6,2.8,9.7,7.6,11.4,13.2c2,6.5,0,13.9-4.3,16.5c-0.7,0.4-1.2,1.3-1.4,2.4
		c-0.2,1.2,0,2.4,0.6,3.2c1,1.6,3,2,4.6,1.1c4.9-3,6.3-10.5,6.7-14.6c0.5-5.8-0.8-11.9-3.6-16.8c-5.6-9.7-16.4-15.6-27.6-15.2
		c-0.1,0-0.2,0-0.2,0c-10,0.5-19.3,6.3-27.4,11.9c-0.1,0.2-0.2,0.5-0.2,0.7c1.5-4.4,2.8-9.2,4.8-13.1c4.3-8.6,11.6-14.2,18.8-19
		c2.3-1.5,4.8-3.2,7.5-2.6c1.8-3.3,3-8.4,2.5-12.4c-1.2-9.5-1.2-19.4-0.6-28.9l-5.1-5.5c-6.5,0.2-13.1,0.4-19.6,0.6
		c0.6,3.4,2.4,6.9,4.8,8.7c2.1,1.5,4.8,1.1,7-0.1c0.3-0.2,0.7-0.3,1-0.2c0.5,0.2,0.7,0.9,0.9,1.5c1.8,7.5,1.6,15.3-0.3,22.6
		c-7.1,3.6-15.4,0.6-23.2,0.5c-11.5-0.2-23.2,5.9-30,17.1c-2.2-2.4-3.2-6.1-3.5-9.6c-0.2-3.5,0.6-7.3,1.2-10.8
		c-2.7-6.8-14.3-19.7-14.3-19.7l-2.6-7.7c-6.7,0.3-14.3,0.7-21,1c-0.6,2.9,1.1,6.1,3,8.1c2,2.1,5,2.5,7.2,1.1c1-0.7,2-1.7,3.2-1.3
		c0.7,0.3,1.1,1,1.6,1.7c3.2,5.5,7,10.8,7.6,17.5c0.3,3.3-1.4,6.2-3.2,8.4s-3.9,4.4-4.8,7.4c-0.6,2.2-0.6,4.6,0.2,6.7
		c-12.6-3.1-25.4-3.6-38-1.7c-0.3,0-0.6,0.1-0.9,0.1c-2.3-4.7-4.9-9.2-6.1-14.3c-1.9-8.1-2.2-16.2-1.5-24.4l-4.7-7.4l-11.8,0.7
		c-6.8,0.4-13.9,0.9-20.7,1.3C1302.7,711.1,1304.2,713.9,1306.2,715.4z M1443.1,783c-0.2,0.6-0.4,1.2-0.6,1.8
		C1442.6,784.2,1442.8,783.6,1443.1,783z M1325.9,715.3c0.3-0.2,0.7-0.4,1-0.6c0.5-0.4,1-0.9,1.6-0.8c1.1,0.2,1.3,1.9,1.3,3.2
		c-0.1,7.9-0.3,15-0.1,22.9c0,1.6-0.1,3.3-0.2,4.9c-0.8-1.9-1.6-3.9-2-6C1325.6,731.1,1325.2,723.2,1325.9,715.3z"/>
	<path class="st7" d="M1338.8,701.7c-1.5-6.5-2-13.1-1-19.7c0.7-4.2,2.8-8.1,4.6-12c0.3,0,0.6,0,0.9,0c12.6,0.5,25.3-1.1,37.4-4.6
		c-0.6,1.8-0.4,3.7,0.4,5.4c1.2,2.4,3.5,3.9,5.5,5.5c2,1.7,4,3.8,4.1,6.5c0.1,5.4-3.1,10-5.8,14.7c-0.3,0.6-0.7,1.2-1.4,1.5
		c-1.1,0.4-2.2-0.3-3.3-0.7c-2.4-1-5.3-0.4-7,1.5c-1.1,1.2-1.7,2.9-1.7,4.5c7-0.3,13.9-0.7,21-1l1.2-4.1c0,0,10.1-11.3,12.1-17
		c-0.9-2.7-2.1-5.7-2.2-8.5c-0.1-2.9,0.6-5.8,2.5-8c7.9,8.3,20,12.2,31.4,11.1c7.7-0.8,15.6-3.9,23-1.6c2.6,5.7,3.7,11.9,2.6,18.1
		c-0.1,0.5-0.2,1.1-0.7,1.3c-0.3,0.1-0.7,0-1-0.1c-2.3-0.7-5-0.8-6.9,0.5c-1.9,1.4-2.6,3.7-3,6.1c6.5-0.2,13-0.4,19.6-0.6l3.4-4.3
		c-1.5-7.5-2.6-15.5-2.3-23.2c0.1-3.3-1.6-7.2-3.7-9.7c-2.5,0.7-5.2-0.4-7.6-1.4c-7.6-3.3-15.4-7.1-20.5-13.6c-2.3-3-4.1-6.7-6-10.1
		c0.1,0.2,0.2,0.4,0.3,0.6c8.5,3.8,18.3,7.6,28.3,7.2c0.1,0,0.2,0,0.2,0c11.1-0.6,21.2-6.3,25.7-14.5c2.3-4.1,3-9.1,1.8-13.7
		c-0.8-3.3-2.9-9.1-8.1-11.2c-1.6-0.6-3.5-0.1-4.4,1.3c-0.5,0.7-0.6,1.7-0.3,2.6c0.3,0.9,0.9,1.5,1.6,1.8c4.5,1.7,7.2,7.5,5.9,12.8
		c-1.1,4.6-4.7,8.8-9.9,11.5c-6.5,3.4-14.7,4.4-23.1,2.7c-6.8-1.3-13.9-4.4-21.8-9.3c-1.5-0.9-2.9-1.9-4.3-2.8
		c0.1,0.1,0.2,0.2,0.3,0.3c-3.7-3.4-8.5-5.3-13.1-7.1c-17.9-6.9-38.4,2-57.3-1.3c-5,0.5-9.7-1.5-14.6-2.9c-3.8-1.1-7.7-2.3-11-4.4
		c-2.9-1.9-5.3-4.4-8-6.5c-3.3-2.6-7.2-4.6-11.3-5.8c-6.9-2.1-12.6-7.8-16.9-13.5c-2.2-2.9-1.7-7.2-3.3-10.4
		c-0.1-0.2-0.2-0.3-0.4-0.4c-0.2-0.1-0.5,0-0.7,0.1c-1.9,1-3.5,2.6-4.5,4.5c-0.5-1.8-1.3-3.4-2.6-4.8c-1,1.4-2.1,2.8-2.8,4.4
		c-0.3,0.7-0.7,1.6-0.7,2.3c-3.7,0.6-7.3,1.8-10.6,3.6c-0.6,0.3-1.2,0.7-1.5,1.2c-0.3,0.5-0.4,1-0.4,1.5c-0.3,1.9,0.1,4-0.1,5.9
		c-1.3,1.6-2.7,3.1-4,4.7c-1.2,1.4-2.5,3-2.4,4.8c0.1,1.6,1.2,2.9,2.4,4c1.2,1.1,2.5,2,3.4,3.3c0.3,0.5,0.5,1,0.9,1.5
		c1.5,1.9,4.7,1.4,6.5-0.2c1-0.8,1.7-1.8,2.8-2.4c1.5-0.8,3.5-0.7,5.1-0.1c1.6,0.7,3,1.8,4.3,3c1.4,5.5,4.2,10.4,8,14.6
		c-1.3,6-0.2,12.1,2.7,17.5c2.9,5.4,7,10,11,14.6c-0.6,3.9,0.3,7.9,1.5,11.6c1.2,3.8,2.7,7.5,3.1,11.5c0.6,6.3,1.6,12,2.4,18.3
		c0.1,1,0.1,2.4-1,2.7c-0.6,0.1-1.2-0.2-1.7-0.5c-2.1-1.1-4.8-0.9-6.6,0.5c-1.6,1.2-2.5,3.1-2.6,5.1c10.7-0.7,21.6-1.4,32.5-2
		L1338.8,701.7z M1433.9,637.5c-0.3-0.5-0.5-0.9-0.8-1.4C1433.3,636.6,1433.6,637,1433.9,637.5z M1327.5,702.6
		c-0.6,0.1-1.2-0.2-1.7-0.5c-0.3-0.2-0.7-0.3-1.1-0.4c-1.4-6.3-1.8-12.6-0.8-19c0.3-1.7,0.8-3.4,1.4-5c0.3,1.3,0.6,2.6,0.7,3.9
		c0.6,6.3,1.6,12,2.4,18.3C1328.6,701,1328.5,702.4,1327.5,702.6z"/>
</g>
</svg>
