<?xml version="1.0" encoding="utf-8"?>
<!-- Generator: Adobe Illustrator 25.4.1, SVG Export Plug-In . SVG Version: 6.00 Build 0)  -->
<svg version="1.1" id="Layer_1" xmlns="http://www.w3.org/2000/svg" xmlns:xlink="http://www.w3.org/1999/xlink" x="0px" y="0px"
	 viewBox="0 0 1920 1080" style="enable-background:new 0 0 1920 1080;" xml:space="preserve">
<style type="text/css">
	.st0{fill:#12373F;}
	.st1{fill:url(#SVGID_1_);}
	.st2{opacity:0.4;fill:url(#SVGID_00000016037017735956951220000001169213017473068984_);}
	.st3{opacity:0.3;fill:url(#SVGID_00000059273858686524046240000018052664096539284612_);}
	.st4{opacity:0.2;fill:#7C8B99;}
	.st5{opacity:0.1;fill:#7C8B99;}
	.st6{fill:#396477;}
	.st7{fill:#194B5B;}
	.st8{opacity:0.4;fill:#7C8B99;}
</style>
<g>
	<rect class="st0" width="1920" height="1080"/>
	<g>
		
			<radialGradient id="SVGID_1_" cx="1542.0688" cy="-80.6774" r="250.6047" fx="1498.9683" fy="-86.3009" gradientTransform="matrix(0.838 0.5457 -0.5457 0.838 296.7815 -489.9859)" gradientUnits="userSpaceOnUse">
			<stop  offset="0" style="stop-color:#FFFFFF"/>
			<stop  offset="0.6344" style="stop-color:#EDEDED"/>
			<stop  offset="1" style="stop-color:#E1E0E0"/>
		</radialGradient>
		<path class="st1" d="M1739.4,512.8c-105.4,58.1-238,19.8-296.2-85.6c-58.1-105.4-19.8-238.1,85.6-296.2
			c105.4-58.1,238.1-19.8,296.2,85.6C1883.2,322.1,1844.9,454.7,1739.4,512.8z"/>
		
			<radialGradient id="SVGID_00000090257987559066436860000001487340258528695207_" cx="1563.7281" cy="-49.3989" r="218.0243" gradientTransform="matrix(0.838 0.5457 -0.5457 0.838 296.7815 -489.9859)" gradientUnits="userSpaceOnUse">
			<stop  offset="0" style="stop-color:#FFFFFF"/>
			<stop  offset="0.6344" style="stop-color:#EDEDED"/>
			<stop  offset="1" style="stop-color:#E1E0E0"/>
		</radialGradient>
		<path style="opacity:0.4;fill:url(#SVGID_00000090257987559066436860000001487340258528695207_);" d="M1700.9,114.3
			c66.5,23.4,117.9,82.4,128.1,157.1c14.5,106.3-59.9,204.3-166.3,218.8c-106.3,14.5-204.3-59.9-218.8-166.3
			c-14.4-105.4,58.7-202.6,163.5-218.4c-0.9,0.1-1.8,0.2-2.8,0.3c-119.3,16.3-202.8,126.2-186.5,245.5
			c16.3,119.3,126.2,202.8,245.5,186.6c119.3-16.3,202.8-126.2,186.5-245.5C1838.4,206.6,1778.2,139.2,1700.9,114.3z"/>
		
			<radialGradient id="SVGID_00000163751016926805696690000009439822874242654371_" cx="1490.6324" cy="-143.1281" r="161.7782" gradientTransform="matrix(0.7918 0.6108 -0.6108 0.7918 371.1049 -532.8323)" gradientUnits="userSpaceOnUse">
			<stop  offset="0" style="stop-color:#FFFFFF"/>
			<stop  offset="0.6344" style="stop-color:#EDEDED"/>
			<stop  offset="1" style="stop-color:#E1E0E0"/>
		</radialGradient>
		<path style="opacity:0.3;fill:url(#SVGID_00000163751016926805696690000009439822874242654371_);" d="M1807.6,254.9
			c4.7,85-67,158.1-160.2,163.3c-93.3,5.2-172.7-59.5-177.4-144.5c-4.7-85,67-158.1,160.3-163.3
			C1723.4,105.3,1802.9,170,1807.6,254.9z"/>
	</g>
	<g>
		<path class="st4" d="M1920,487.2c-11.3-11.5-27-18.6-44.2-18.6c-6.2-44.3-45.6-77-91-74.1c-6.3,0.4-12.4,1.5-18.3,3.1
			c-17.5-32.5-52.7-53.7-92-51.2c-31.6,2-58.7,18.8-75,43.3c-11.8-4.6-24.7-6.8-38.1-6c-41.6,2.6-74.7,33.4-82.1,72.5
			c-39.4,2.8-69.2,36.9-66.7,76.3c0.8,12.4,4.6,23.9,10.8,33.7H1920V487.2z"/>
		<path class="st5" d="M1920,408.3c-0.5,0-0.9,0.1-1.4,0.1c-4.8-54.8-50.8-97.8-106.9-97.8c-58.6,0-106.1,46.9-107.3,105.1
			c-25.9,12.6-43.8,39.1-43.8,69.8c0,9.1,1.6,17.8,4.4,25.9h255V408.3z"/>
	</g>
	<path class="st6" d="M1920,1080V478.3C661.7,478.3,214.7,873.5,67,1080H1920z"/>
	<path class="st7" d="M67,1080C141.2,976.3,291,824.9,581.1,700C444.3,647.5,247.8,591.7,0,572.9V1080H67z"/>
	<path class="st0" d="M581.1,700L581.1,700c0,0-377.4,86.5-581.1,380h67C141.2,976.3,291,824.9,581.1,700z"/>
	<path class="st8" d="M1418.1,351.4c-3.7-27.4-2.2-54.4,3.8-79.8c-11.5-11.8-27.6-19.1-45.4-19.1c-35,0-63.4,28.4-63.4,63.4
		c0,0.1,0,0.1,0,0.2c-5.2-1.4-10.7-2.2-16.4-2.2c-34.6,0-62.7,28.1-62.7,62.7c0,8,1.6,15.7,4.3,22.8c-19.1,13.9-31.6,36.3-31.6,61.8
		c0,4.2,0.4,8.2,1.1,12.2c-13.7-7.7-29.4-12.2-46.2-12.2c-51.3,0-93,41.2-93.8,92.3c128.6-25.6,272.4-45.9,433-58.9
		C1457.2,460.7,1426.2,410.4,1418.1,351.4z"/>
	<path class="st5" d="M221.2,600.9c1-3.6,1.5-7.3,1.5-11.2c0-24.3-19.7-44-44-44c-10.1,0-19.4,3.4-26.8,9.2
		c-5.8-16-21.1-27.4-39.1-27.4c-2.5,0-4.9,0.3-7.2,0.7c0.3-2.4,0.4-4.8,0.4-7.2c0-37.4-30.3-67.7-67.7-67.7
		c-14.2,0-27.4,4.4-38.3,11.9v107.8C79.1,578.9,152.9,588.7,221.2,600.9z"/>
	<path class="st7" d="M1567.3,498.3c2.5,1.8,5.7,1.8,8.1-0.1c0.6-0.5,1.2-1.1,2-1c1.3,0.2,1.6,2.3,1.6,3.9
		c-0.1,9.4-0.3,18.1-0.1,27.5c0.1,5.9-1.1,11.6-2,17.4c-0.9,5.8-1.4,11.7-0.1,17.5c-4.2,7.3-8.4,14.7-11,23.1s-3.1,17.6-0.6,26.3
		c-4,6.6-6.5,14.4-7.4,22.6c-1.4,1.9-2.8,3.8-4.7,5c-1.9,1.2-4.2,1.6-6.1,0.5c-1.4-0.7-2.5-2.1-3.8-3.2c-2.5-2.1-6.3-2.4-7.9,0.6
		c-0.4,0.7-0.6,1.6-0.9,2.4c-0.8,2.1-2.3,3.7-3.5,5.4c-1.3,1.7-2.4,3.8-2.3,6.2c0.2,2.7,1.9,4.9,3.6,6.8c1.8,2.1,3.7,4.3,5.5,6.4
		c0.6,2.7,0.5,6,1.1,8.7c0.2,0.8,0.3,1.6,0.8,2.2c0.5,0.8,1.3,1.2,2,1.6c4.2,2.2,8.7,3.5,13.2,4c0.1,1.1,0.7,2.4,1.2,3.4
		c1.1,2.3,2.6,4.2,4,6.1c1.3-2.2,2.1-4.8,2.3-7.4c1.5,2.7,3.6,4.8,6.1,6.1c0.3,0.2,0.6,0.3,0.9,0.1c0.2-0.1,0.3-0.4,0.4-0.7
		c1.4-5,0.3-11.3,2.4-15.9c4.3-9.1,10.3-18.3,18.3-22.2c4.7-2.3,9-5.7,12.6-10c2.9-3.5,5.4-7.5,8.6-10.7c3.7-3.6,8.2-5.8,12.6-8
		c5.6-2.7,10.9-6.3,17-6.2c22.2-7.3,48.1,3.3,68.5-9.3c5.3-3.3,10.8-6.7,14.6-12.2c-0.1,0.1-0.2,0.3-0.3,0.4
		c1.6-1.6,3.1-3.2,4.8-4.8c8.7-8.3,16.8-13.8,24.8-16.6c9.8-3.6,19.8-3.2,28.2,1.1c6.7,3.4,11.6,9.2,13.6,15.8
		c2.3,7.8,0,16.6-5.2,19.8c-0.8,0.5-1.4,1.5-1.6,2.9c-0.2,1.4,0,2.9,0.7,3.9c1.2,1.9,3.6,2.4,5.5,1.3c5.9-3.6,7.5-12.6,8-17.6
		c0.7-7-0.9-14.3-4.3-20.2c-6.7-11.6-19.7-18.8-33.1-18.2c-0.1,0-0.2,0-0.3,0c-12,0.6-23.2,7.6-32.8,14.2c-0.1,0.3-0.2,0.6-0.3,0.9
		c1.8-5.3,3.4-11.1,5.7-15.8c5.2-10.3,13.9-17,22.5-22.9c2.7-1.9,5.8-3.8,9-3.1c2.2-3.9,3.6-10.1,3-14.9
		c-1.5-11.4-1.4-23.3-0.8-34.7l-6.1-6.6c-7.8,0.2-15.8,0.4-23.5,0.7c0.7,4.1,2.9,8.3,5.8,10.4c2.6,1.8,5.7,1.3,8.4-0.1
		c0.4-0.2,0.8-0.4,1.2-0.3c0.6,0.2,0.9,1.1,1.1,1.8c2.2,9.1,1.9,18.3-0.4,27.1c-8.6,4.3-18.5,0.7-27.8,0.6
		c-13.8-0.2-27.8,7.1-36,20.5c-2.6-2.9-3.9-7.3-4.2-11.5c-0.3-4.2,0.7-8.8,1.4-12.9c-3.3-8.1-17.1-23.7-17.1-23.7l-3.1-9.2
		c-8,0.4-17.2,0.8-25.2,1.2c-0.7,3.4,1.4,7.4,3.6,9.7c2.4,2.5,6,3.1,8.7,1.3c1.2-0.8,2.5-2,3.8-1.5c0.8,0.3,1.4,1.2,1.9,2
		c3.9,6.6,8.4,13,9.1,21c0.4,3.9-1.7,7.4-3.9,10.1c-2.2,2.7-4.7,5.3-5.8,8.9c-0.7,2.6-0.7,5.5,0.3,8.1c-15.1-3.7-30.5-4.4-45.6-2
		c-0.4,0.1-0.7,0.1-1.1,0.2c-2.7-5.6-5.9-11.1-7.3-17.2c-2.2-9.7-2.7-19.5-1.8-29.3l-5.7-8.9l-14.2,0.9c-8.2,0.5-16.7,1.1-24.8,1.6
		C1563.1,493.2,1564.9,496.5,1567.3,498.3z M1731.6,579.4c-0.3,0.7-0.5,1.5-0.8,2.2C1731.1,580.9,1731.4,580.1,1731.6,579.4z
		 M1590.9,498.1c0.4-0.2,0.8-0.4,1.2-0.7c0.6-0.5,1.2-1.1,2-1c1.3,0.2,1.6,2.3,1.6,3.9c-0.1,9.4-0.3,18.1-0.1,27.5
		c0,2-0.1,3.9-0.3,5.9c-1-2.3-1.9-4.7-2.4-7.2C1590.7,517.1,1590.2,507.7,1590.9,498.1z"/>
	<path class="st7" d="M1606.5,481.9c-1.9-7.8-2.4-15.7-1.2-23.6c0.8-5,3.3-9.7,5.5-14.4c0.4,0,0.7,0,1.1,0
		c15.1,0.6,30.4-1.3,44.9-5.5c-0.7,2.1-0.5,4.5,0.5,6.5c1.4,2.8,4.2,4.7,6.6,6.7c2.5,2,4.8,4.6,4.9,7.8c0.1,6.5-3.7,11.9-6.9,17.6
		c-0.4,0.7-0.9,1.5-1.6,1.8c-1.3,0.5-2.6-0.4-3.9-0.9c-2.8-1.2-6.3-0.4-8.4,1.8c-1.4,1.4-2.1,3.4-2,5.4c8.3-0.4,16.7-0.8,25.2-1.2
		l1.4-4.9c0,0,12.1-13.6,14.5-20.4c-1.1-3.2-2.5-6.8-2.7-10.2c-0.1-3.4,0.7-7,3-9.6c9.5,10,24,14.7,37.7,13.3
		c9.3-0.9,18.7-4.7,27.6-1.9c3.2,6.8,4.4,14.2,3.2,21.7c-0.1,0.6-0.3,1.3-0.9,1.5c-0.4,0.1-0.8,0-1.2-0.1c-2.7-0.9-5.9-1-8.3,0.7
		c-2.3,1.6-3.2,4.4-3.6,7.3c7.8-0.2,15.6-0.5,23.5-0.7l4.1-5.1c-1.8-9-3.1-18.6-2.8-27.8c0.1-3.9-1.9-8.7-4.5-11.7
		c-3,0.9-6.3-0.4-9.2-1.7c-9.2-3.9-18.5-8.5-24.6-16.4c-2.8-3.5-5-8-7.3-12.1c0.1,0.2,0.3,0.4,0.4,0.7c10.2,4.5,22,9.1,34,8.6
		c0.1,0,0.2,0,0.3,0c13.3-0.7,25.4-7.5,30.9-17.4c2.8-5,3.6-11,2.2-16.5c-1-4-3.5-11-9.7-13.4c-1.9-0.8-4.3-0.1-5.3,1.5
		c-0.6,0.9-0.7,2.1-0.3,3.2c0.3,1,1,1.8,1.9,2.2c5.5,2.1,8.6,9,7.1,15.4c-1.3,5.5-5.6,10.5-11.9,13.8c-7.8,4.1-17.7,5.3-27.8,3.3
		c-8.2-1.6-16.7-5.3-26.2-11.2c-1.8-1.1-3.5-2.2-5.2-3.4c0.1,0.1,0.2,0.2,0.4,0.3c-4.4-4.1-10.1-6.3-15.7-8.5
		c-21.5-8.3-46.1,2.4-68.8-1.6c-6,0.5-11.7-1.8-17.5-3.5c-4.6-1.3-9.2-2.7-13.3-5.3c-3.5-2.2-6.4-5.3-9.6-7.8c-4-3.1-8.6-5.5-13.5-7
		c-8.3-2.5-15.1-9.3-20.3-16.2c-2.6-3.5-2.1-8.6-4-12.5c-0.1-0.2-0.2-0.4-0.4-0.5c-0.3-0.1-0.6,0-0.9,0.1c-2.3,1.2-4.2,3.1-5.4,5.4
		c-0.6-2.1-1.6-4.1-3.1-5.8c-1.3,1.6-2.5,3.3-3.4,5.2c-0.4,0.8-0.8,1.9-0.9,2.8c-4.4,0.8-8.8,2.2-12.7,4.3c-0.7,0.4-1.4,0.8-1.8,1.5
		c-0.3,0.6-0.4,1.2-0.5,1.9c-0.3,2.2,0.1,4.8-0.2,7.1c-1.6,1.9-3.2,3.7-4.8,5.6c-1.4,1.7-2.9,3.6-2.8,5.8c0.1,1.9,1.4,3.5,2.9,4.8
		s3,2.4,4.1,4c0.4,0.6,0.7,1.3,1.1,1.8c1.8,2.3,5.6,1.6,7.9-0.2c1.1-0.9,2.1-2.2,3.4-2.9c1.8-1,4.2-0.9,6.1-0.1
		c2,0.8,3.6,2.2,5.2,3.6c1.7,6.6,5,12.5,9.6,17.5c-1.6,7.2-0.2,14.5,3.2,21c3.5,6.5,8.4,12.1,13.3,17.6c-0.7,4.7,0.4,9.4,1.9,14
		c1.5,4.5,3.2,9,3.7,13.8c0.8,7.6,1.9,14.4,2.9,22c0.2,1.2,0.1,2.9-1.2,3.2c-0.7,0.2-1.4-0.3-2-0.6c-2.5-1.3-5.7-1-8,0.6
		c-1.9,1.4-3,3.7-3.1,6.1c12.9-0.9,25.9-1.7,39-2.5L1606.5,481.9z M1720.6,404.8c-0.3-0.6-0.7-1.1-1-1.7
		C1719.9,403.7,1720.3,404.2,1720.6,404.8z M1592.9,483c-0.7,0.2-1.4-0.3-2-0.6c-0.4-0.2-0.8-0.4-1.3-0.5c-1.7-7.6-2.2-15.1-1-22.8
		c0.3-2,0.9-4,1.7-6c0.4,1.5,0.7,3.1,0.9,4.7c0.8,7.6,1.9,14.4,2.9,22C1594.3,481,1594.1,482.7,1592.9,483z"/>
</g>
</svg>
