<?xml version="1.0" encoding="utf-8"?>
<!-- Generator: Adobe Illustrator 25.4.1, SVG Export Plug-In . SVG Version: 6.00 Build 0)  -->
<svg version="1.1" id="Layer_1" xmlns="http://www.w3.org/2000/svg" xmlns:xlink="http://www.w3.org/1999/xlink" x="0px" y="0px"
	 viewBox="0 0 2560 1440" style="enable-background:new 0 0 2560 1440;" xml:space="preserve">
<style type="text/css">
	.st0{fill:#12373F;}
	.st1{opacity:0.1;fill:#7C8B99;}
	.st2{fill:url(#SVGID_1_);}
	.st3{opacity:0.4;fill:url(#SVGID_00000137814986177056081910000007540276365531082686_);}
	.st4{opacity:0.3;fill:url(#SVGID_00000078040060771490013150000003302051512964431039_);}
	.st5{opacity:0.2;fill:#7C8B99;}
	.st6{fill:#194B5B;}
	.st7{opacity:0.4;fill:#7C8B99;}
	.st8{fill:#396477;}
</style>
<g>
	<rect class="st0" width="2560" height="1440"/>
	<path class="st1" d="M447.8,977.5c1.9-7.3,3-14.9,3-22.7c0-49.1-39.8-89-89-89c-20.5,0-39.3,7-54.3,18.6
		c-11.8-32.3-42.8-55.4-79.2-55.4c-5,0-9.8,0.5-14.6,1.3c0.5-4.8,0.8-9.7,0.8-14.6c0-75.7-61.3-137-137-137
		c-28.8,0-55.5,8.9-77.5,24.1v218.2C160,933.1,309.5,952.8,447.8,977.5z"/>
	<g>
		
			<radialGradient id="SVGID_1_" cx="2228.4373" cy="75.5436" r="250.6042" fx="2185.3367" fy="69.9202" gradientTransform="matrix(0.838 0.5457 -0.5457 0.838 446.8486 -635.433)" gradientUnits="userSpaceOnUse">
			<stop  offset="0" style="stop-color:#FFFFFF"/>
			<stop  offset="0.6344" style="stop-color:#EDEDED"/>
			<stop  offset="1" style="stop-color:#E1E0E0"/>
		</radialGradient>
		<path class="st2" d="M2379.4,872.8c-105.4,58.1-238,19.8-296.2-85.6c-58.1-105.4-19.8-238.1,85.6-296.2
			c105.4-58.1,238.1-19.8,296.2,85.6C2523.2,682.1,2484.8,814.7,2379.4,872.8z"/>
		
			<radialGradient id="SVGID_00000005230070090386921340000004561935302245198477_" cx="2250.0967" cy="106.8221" r="218.0238" gradientTransform="matrix(0.838 0.5457 -0.5457 0.838 446.8486 -635.433)" gradientUnits="userSpaceOnUse">
			<stop  offset="0" style="stop-color:#FFFFFF"/>
			<stop  offset="0.6344" style="stop-color:#EDEDED"/>
			<stop  offset="1" style="stop-color:#E1E0E0"/>
		</radialGradient>
		<path style="opacity:0.4;fill:url(#SVGID_00000005230070090386921340000004561935302245198477_);" d="M2340.9,474.3
			c66.5,23.4,117.9,82.4,128.1,157.1c14.5,106.3-59.9,204.3-166.3,218.8c-106.3,14.5-204.3-59.9-218.8-166.3
			c-14.4-105.4,58.7-202.6,163.5-218.4c-0.9,0.1-1.8,0.2-2.8,0.3c-119.3,16.3-202.8,126.2-186.5,245.5
			c16.3,119.3,126.2,202.8,245.5,186.6c119.3-16.3,202.8-126.2,186.5-245.5C2478.4,566.6,2418.2,499.2,2340.9,474.3z"/>
		
			<radialGradient id="SVGID_00000021839017345276488740000012139477355221260715_" cx="2173.939" cy="-16.0681" r="161.7779" gradientTransform="matrix(0.7918 0.6108 -0.6108 0.7918 547.6865 -690.7988)" gradientUnits="userSpaceOnUse">
			<stop  offset="0" style="stop-color:#FFFFFF"/>
			<stop  offset="0.6344" style="stop-color:#EDEDED"/>
			<stop  offset="1" style="stop-color:#E1E0E0"/>
		</radialGradient>
		<path style="opacity:0.3;fill:url(#SVGID_00000021839017345276488740000012139477355221260715_);" d="M2447.6,614.9
			c4.7,85-67,158.1-160.2,163.3c-93.3,5.2-172.7-59.5-177.4-144.4c-4.7-85,67-158.1,160.3-163.3
			C2363.4,465.3,2442.9,530,2447.6,614.9z"/>
	</g>
	<g>
		<path class="st5" d="M2560,847.2c-11.3-11.5-27-18.6-44.2-18.6c-6.2-44.3-45.6-77-91-74.1c-6.3,0.4-12.4,1.5-18.3,3.1
			c-17.5-32.5-52.7-53.7-92-51.2c-31.6,2-58.7,18.8-75,43.3c-11.8-4.6-24.7-6.8-38.1-6c-41.6,2.6-74.7,33.4-82.1,72.5
			c-39.4,2.8-69.2,36.9-66.7,76.3c0.8,12.4,4.6,23.9,10.8,33.7H2560V847.2z"/>
		<path class="st1" d="M2560,768.3c-0.5,0-0.9,0.1-1.4,0.1c-4.8-54.8-50.8-97.8-106.9-97.8c-58.6,0-106.1,46.9-107.3,105.1
			c-25.9,12.6-43.8,39.1-43.8,69.8c0,9.1,1.6,17.8,4.4,25.9h255V768.3z"/>
	</g>
	<path class="st6" d="M0,1440h1796.6C1620.9,1227.7,1158.5,885.9,0,881.4V1440z"/>
	<path class="st7" d="M2058.1,711.4c-3.7-27.4-2.2-54.4,3.8-79.8c-11.5-11.8-27.6-19.1-45.4-19.1c-35,0-63.4,28.4-63.4,63.4
		c0,0.1,0,0.1,0,0.2c-5.2-1.4-10.7-2.2-16.4-2.2c-34.6,0-62.7,28.1-62.7,62.7c0,8,1.6,15.7,4.3,22.8c-19.1,13.9-31.6,36.3-31.6,61.8
		c0,4.2,0.4,8.2,1.1,12.2c-13.7-7.7-29.4-12.2-46.2-12.2c-51.3,0-93,41.2-93.8,92.3c128.6-25.6,272.4-45.9,433-58.9
		C2097.1,820.7,2066.2,770.4,2058.1,711.4z"/>
	<path class="st6" d="M2246.5,841.9c-1.9-7.8-2.4-15.7-1.2-23.6c0.8-5,3.3-9.7,5.5-14.4c0.4,0,0.7,0,1.1,0
		c15.1,0.6,30.4-1.3,44.9-5.5c-0.7,2.1-0.5,4.5,0.5,6.5c1.4,2.8,4.2,4.7,6.6,6.7s4.8,4.6,4.9,7.8c0.1,6.5-3.7,11.9-6.9,17.6
		c-0.4,0.7-0.9,1.5-1.6,1.8c-1.3,0.5-2.6-0.4-3.9-0.9c-2.8-1.2-6.3-0.4-8.4,1.8c-1.4,1.4-2.1,3.4-2,5.4c8.3-0.4,16.7-0.8,25.2-1.2
		l1.4-4.9c0,0,12.1-13.6,14.5-20.4c-1.1-3.2-2.5-6.8-2.7-10.2c-0.1-3.4,0.7-7,3-9.6c9.5,10,24,14.7,37.7,13.3
		c9.3-0.9,18.7-4.7,27.6-1.9c3.2,6.8,4.4,14.2,3.2,21.7c-0.1,0.6-0.3,1.3-0.9,1.5c-0.4,0.1-0.8,0-1.2-0.1c-2.7-0.9-5.9-1-8.3,0.7
		c-2.3,1.6-3.2,4.4-3.6,7.3c7.8-0.2,15.6-0.5,23.5-0.7l4.1-5.1c-1.8-9-3.1-18.6-2.8-27.8c0.1-3.9-1.9-8.7-4.5-11.7
		c-3,0.9-6.3-0.4-9.2-1.7c-9.2-3.9-18.5-8.5-24.6-16.4c-2.8-3.5-5-8-7.3-12.1c0.1,0.2,0.3,0.4,0.4,0.7c10.2,4.5,22,9.1,34,8.6
		c0.1,0,0.2,0,0.3,0c13.3-0.7,25.4-7.5,30.9-17.4c2.8-5,3.6-11,2.2-16.5c-1-4-3.5-11-9.7-13.4c-1.9-0.8-4.3-0.1-5.3,1.5
		c-0.6,0.9-0.7,2.1-0.3,3.2c0.3,1,1,1.8,1.9,2.2c5.5,2.1,8.6,9,7.1,15.4c-1.3,5.5-5.6,10.5-11.9,13.8c-7.8,4.1-17.7,5.3-27.8,3.3
		c-8.2-1.6-16.7-5.3-26.2-11.2c-1.8-1.1-3.5-2.2-5.2-3.4c0.1,0.1,0.2,0.2,0.4,0.3c-4.4-4.1-10.1-6.3-15.7-8.5
		c-21.5-8.3-46.1,2.4-68.8-1.6c-6,0.5-11.7-1.8-17.5-3.5c-4.6-1.3-9.2-2.7-13.3-5.3c-3.5-2.2-6.4-5.3-9.6-7.8c-4-3.1-8.6-5.5-13.5-7
		c-8.3-2.5-15.1-9.3-20.3-16.2c-2.6-3.5-2.1-8.6-4-12.5c-0.1-0.2-0.2-0.4-0.4-0.5c-0.3-0.1-0.6,0-0.9,0.1c-2.3,1.2-4.2,3.1-5.4,5.4
		c-0.6-2.1-1.6-4.1-3.1-5.8c-1.3,1.6-2.5,3.3-3.4,5.2c-0.4,0.8-0.8,1.9-0.9,2.8c-4.4,0.8-8.8,2.2-12.7,4.3c-0.7,0.4-1.4,0.8-1.8,1.5
		c-0.3,0.6-0.4,1.2-0.5,1.9c-0.3,2.2,0.1,4.8-0.2,7.1c-1.6,1.9-3.2,3.7-4.8,5.6c-1.4,1.7-2.9,3.6-2.8,5.8c0.1,1.9,1.4,3.5,2.9,4.8
		c1.4,1.3,3,2.4,4.1,4c0.4,0.6,0.7,1.3,1.1,1.8c1.8,2.3,5.6,1.6,7.9-0.2c1.1-0.9,2.1-2.2,3.4-2.9c1.8-1,4.2-0.9,6.1-0.1
		s3.6,2.2,5.2,3.6c1.7,6.6,5,12.5,9.6,17.5c-1.6,7.2-0.2,14.5,3.2,21c3.5,6.5,8.4,12.1,13.3,17.6c-0.7,4.7,0.4,9.4,1.9,14
		c1.5,4.5,3.2,9,3.7,13.8c0.8,7.6,1.9,14.4,2.9,22c0.2,1.2,0.1,2.9-1.2,3.2c-0.7,0.2-1.4-0.3-2-0.6c-2.5-1.3-5.7-1-8,0.6
		c-1.9,1.4-3,3.7-3.1,6.1c12.9-0.9,25.9-1.7,39-2.5L2246.5,841.9z M2360.6,764.8c-0.3-0.6-0.7-1.1-1-1.7
		C2359.9,763.7,2360.3,764.2,2360.6,764.8z M2232.9,843c-0.7,0.2-1.4-0.3-2-0.6c-0.4-0.2-0.8-0.4-1.3-0.5c-1.7-7.6-2.2-15.1-1-22.8
		c0.3-2,0.9-4,1.7-6c0.4,1.5,0.7,3.1,0.9,4.7c0.8,7.6,1.9,14.4,2.9,22C2234.2,841,2234.1,842.7,2232.9,843z"/>
	<path class="st8" d="M2560,1440V838.3c-1258.3,0-1705.3,395.1-1853,601.7H2560z"/>
	<path class="st0" d="M1221.1,1060L1221.1,1060c0,0-377.4,86.5-581.1,380h67C781.2,1336.2,931,1184.9,1221.1,1060z"/>
	<path class="st6" d="M2207.3,858.3c2.5,1.8,5.7,1.8,8.1-0.1c0.6-0.5,1.2-1.1,2-1c1.3,0.2,1.6,2.3,1.6,3.9
		c-0.1,9.4-0.3,18.1-0.1,27.5c0.1,5.9-1.1,11.6-2,17.4c-0.9,5.8-1.4,11.7-0.1,17.5c-4.2,7.3-8.4,14.7-11,23.1s-3.1,17.6-0.6,26.3
		c-4,6.6-6.5,14.4-7.4,22.6c-1.4,1.9-2.8,3.8-4.7,5c-1.9,1.2-4.2,1.6-6.1,0.5c-1.4-0.7-2.5-2.1-3.8-3.2c-2.5-2.1-6.3-2.4-7.9,0.6
		c-0.4,0.7-0.6,1.6-0.9,2.4c-0.8,2.1-2.3,3.7-3.5,5.4c-1.3,1.7-2.4,3.8-2.3,6.2c0.2,2.7,1.9,4.9,3.6,6.8c1.8,2.1,3.7,4.3,5.5,6.4
		c0.6,2.7,0.5,6,1.1,8.7c0.2,0.8,0.3,1.6,0.8,2.2c0.5,0.8,1.3,1.2,2,1.6c4.2,2.2,8.7,3.5,13.2,4c0.1,1.1,0.7,2.4,1.2,3.4
		c1.1,2.3,2.6,4.2,4,6.1c1.3-2.2,2.1-4.8,2.3-7.4c1.5,2.7,3.6,4.8,6.1,6.1c0.3,0.2,0.6,0.3,0.9,0.1c0.2-0.1,0.3-0.4,0.4-0.7
		c1.4-5,0.3-11.3,2.4-15.9c4.3-9.1,10.3-18.3,18.3-22.2c4.7-2.3,9-5.7,12.6-10c2.9-3.5,5.4-7.5,8.6-10.7c3.7-3.6,8.2-5.8,12.6-8
		c5.6-2.7,10.9-6.3,17-6.2c22.2-7.3,48.1,3.3,68.5-9.3c5.3-3.3,10.8-6.7,14.6-12.2c-0.1,0.1-0.2,0.3-0.3,0.4
		c1.6-1.6,3.1-3.2,4.8-4.8c8.7-8.3,16.8-13.8,24.8-16.6c9.8-3.6,19.8-3.2,28.2,1.1c6.7,3.4,11.6,9.2,13.6,15.8
		c2.3,7.8,0,16.6-5.2,19.8c-0.8,0.5-1.4,1.5-1.6,2.9c-0.2,1.4,0,2.9,0.7,3.9c1.2,1.9,3.6,2.4,5.5,1.3c5.9-3.6,7.5-12.6,8-17.6
		c0.7-7-0.9-14.3-4.3-20.2c-6.7-11.6-19.7-18.8-33.1-18.2c-0.1,0-0.2,0-0.3,0c-12,0.6-23.2,7.6-32.8,14.2c-0.1,0.3-0.2,0.6-0.3,0.9
		c1.8-5.3,3.4-11.1,5.7-15.8c5.2-10.3,13.9-17,22.5-22.9c2.7-1.9,5.8-3.8,9-3.1c2.2-3.9,3.6-10.1,3-14.9
		c-1.5-11.4-1.4-23.3-0.8-34.7l-6.1-6.6c-7.8,0.2-15.8,0.4-23.5,0.7c0.7,4.1,2.9,8.3,5.8,10.4c2.6,1.8,5.7,1.3,8.4-0.1
		c0.4-0.2,0.8-0.4,1.2-0.3c0.6,0.2,0.9,1.1,1.1,1.8c2.2,9.1,1.9,18.3-0.4,27.1c-8.6,4.3-18.5,0.7-27.8,0.6
		c-13.8-0.2-27.8,7.1-36,20.5c-2.6-2.9-3.9-7.3-4.2-11.5c-0.3-4.2,0.7-8.8,1.4-12.9c-3.3-8.1-17.1-23.7-17.1-23.7l-3.1-9.2
		c-8,0.4-17.2,0.8-25.2,1.2c-0.7,3.4,1.4,7.4,3.6,9.7c2.4,2.5,6,3.1,8.7,1.3c1.2-0.8,2.5-2,3.8-1.5c0.8,0.3,1.4,1.2,1.9,2
		c3.9,6.6,8.4,13,9.1,21c0.4,3.9-1.7,7.4-3.9,10.1c-2.2,2.7-4.7,5.3-5.8,8.9c-0.7,2.6-0.7,5.5,0.3,8.1c-15.1-3.7-30.5-4.4-45.6-2
		c-0.4,0.1-0.7,0.1-1.1,0.2c-2.7-5.6-5.9-11.1-7.3-17.2c-2.2-9.7-2.7-19.5-1.8-29.3l-5.7-8.9l-14.2,0.9c-8.2,0.5-16.7,1.1-24.8,1.6
		C2203.1,853.2,2204.9,856.5,2207.3,858.3z M2371.6,939.4c-0.3,0.7-0.5,1.5-0.8,2.2C2371.1,940.9,2371.4,940.1,2371.6,939.4z
		 M2230.9,858.1c0.4-0.2,0.8-0.4,1.2-0.7c0.6-0.5,1.2-1.1,2-1c1.3,0.2,1.6,2.3,1.6,3.9c-0.1,9.4-0.3,18.1-0.1,27.5
		c0,2-0.1,3.9-0.3,5.9c-1-2.3-1.9-4.7-2.4-7.2C2230.7,877.1,2230.2,867.7,2230.9,858.1z"/>
</g>
</svg>
