<?xml version="1.0" encoding="utf-8"?>
<!-- Generator: Adobe Illustrator 25.4.1, SVG Export Plug-In . SVG Version: 6.00 Build 0)  -->
<svg version="1.1" id="Layer_1" xmlns="http://www.w3.org/2000/svg" xmlns:xlink="http://www.w3.org/1999/xlink" x="0px" y="0px"
	 viewBox="0 0 3840 2160" style="enable-background:new 0 0 3840 2160;" xml:space="preserve">
<style type="text/css">
	.st0{fill:#12373F;}
	.st1{fill:url(#SVGID_1_);}
	.st2{opacity:0.4;fill:url(#SVGID_00000053517761046322624680000015537404561632689793_);}
	.st3{opacity:0.3;fill:url(#SVGID_00000057862913051770036940000010882835691994620844_);}
	.st4{opacity:0.2;fill:#7C8B99;}
	.st5{opacity:0.1;fill:#7C8B99;}
	.st6{fill:#396477;}
	.st7{fill:#194B5B;}
	.st8{opacity:0.4;fill:#7C8B99;}
</style>
<g>
	<rect class="st0" width="3840" height="2160"/>
	<g>
		
			<radialGradient id="SVGID_1_" cx="2927.0076" cy="-123.4768" r="501.6036" fx="2840.7385" fy="-134.7325" gradientTransform="matrix(0.8373 0.5453 -0.5452 0.8374 747.8871 -924.7971)" gradientUnits="userSpaceOnUse">
			<stop  offset="0" style="stop-color:#FFFFFF"/>
			<stop  offset="0.6344" style="stop-color:#EDEDED"/>
			<stop  offset="1" style="stop-color:#E1E0E0"/>
		</radialGradient>
		<path class="st1" d="M3478.8,1025.7c-210.9,116.3-476.1,39.6-592.4-171.3c-116.3-210.9-39.6-476.1,171.3-592.4
			c210.9-116.3,476.1-39.6,592.4,171.3C3766.4,644.2,3689.7,909.4,3478.8,1025.7z"/>
		
			<radialGradient id="SVGID_00000106122384616267131000000017569776141723905943_" cx="2970.3601" cy="-60.8704" r="436.3914" gradientTransform="matrix(0.8373 0.5453 -0.5452 0.8374 747.8871 -924.7971)" gradientUnits="userSpaceOnUse">
			<stop  offset="0" style="stop-color:#FFFFFF"/>
			<stop  offset="0.6344" style="stop-color:#EDEDED"/>
			<stop  offset="1" style="stop-color:#E1E0E0"/>
		</radialGradient>
		<path style="opacity:0.4;fill:url(#SVGID_00000106122384616267131000000017569776141723905943_);" d="M3401.7,228.6
			c133.1,46.9,235.8,164.8,256.2,314.2c29,212.7-119.8,408.6-332.5,437.6c-212.7,29-408.6-119.9-437.6-332.5
			c-28.8-210.8,117.3-405.1,327-436.8c-1.9,0.2-3.7,0.4-5.5,0.7c-238.6,32.5-405.7,252.4-373.1,491
			c32.5,238.6,252.4,405.7,491,373.1c238.6-32.6,405.7-252.4,373.1-491C3676.9,413.1,3556.4,278.4,3401.7,228.6z"/>
		
			<radialGradient id="SVGID_00000021807392804357145770000017666650870586128516_" cx="2820.2812" cy="-236.9852" r="323.8109" gradientTransform="matrix(0.7911 0.6103 -0.6103 0.7912 901.6349 -1005.14)" gradientUnits="userSpaceOnUse">
			<stop  offset="0" style="stop-color:#FFFFFF"/>
			<stop  offset="0.6344" style="stop-color:#EDEDED"/>
			<stop  offset="1" style="stop-color:#E1E0E0"/>
		</radialGradient>
		<path style="opacity:0.3;fill:url(#SVGID_00000021807392804357145770000017666650870586128516_);" d="M3615.2,509.8
			c9.5,170-134,316.2-320.5,326.6c-186.5,10.4-345.4-119-354.9-288.9c-9.5-169.9,134-316.2,320.6-326.5
			C3446.9,210.5,3605.7,339.9,3615.2,509.8z"/>
	</g>
	<g>
		<path class="st4" d="M3840,974.5c-22.6-23.1-54-37.2-88.3-37.2c-12.5-88.6-91.2-154-181.9-148.3c-12.6,0.8-24.9,3-36.6,6.3
			c-34.9-65.1-105.4-107.4-183.9-102.4c-63.2,4-117.5,37.7-150,86.6c-23.5-9.2-49.4-13.6-76.2-11.9
			c-83.2,5.2-149.5,66.7-164.1,145.1c-78.7,5.7-138.3,73.7-133.3,152.7c1.6,24.8,9.3,47.7,21.6,67.4H3840V974.5z"/>
		<path class="st5" d="M3840,816.6c-0.9,0.1-1.8,0.2-2.7,0.3c-9.7-109.7-101.7-195.7-213.9-195.7c-117.1,0-212.2,93.8-214.6,210.3
			c-51.8,25.1-87.6,78.2-87.6,139.7c0,18.1,3.1,35.5,8.9,51.7h510V816.6z"/>
	</g>
	<path class="st6" d="M3840,2160V956.7C1323.4,956.7,429.4,1747,134.1,2160H3840z"/>
	<path class="st7" d="M134.1,2160c148.4-207.5,447.8-510.2,1028.2-760.1c-273.6-105-666.6-216.5-1162.2-254V2160H134.1z"/>
	<path class="st0" d="M1162.2,1399.9L1162.2,1399.9c0,0-754.8,173.1-1162.2,760.1h134.1C282.5,1952.5,581.9,1649.8,1162.2,1399.9z"
		/>
	<path class="st8" d="M2836.2,702.8c-7.5-54.9-4.4-108.8,7.7-159.6c-23-23.6-55.2-38.3-90.7-38.3c-70,0-126.8,56.8-126.8,126.8
		c0,0.1,0,0.2,0,0.4c-10.5-2.8-21.4-4.5-32.7-4.5c-69.3,0-125.4,56.2-125.4,125.4c0,16.1,3.1,31.4,8.6,45.5
		c-38.2,27.7-63.2,72.7-63.2,123.5c0,8.3,0.8,16.4,2.1,24.4c-27.3-15.5-58.8-24.4-92.5-24.4c-102.7,0-186,82.4-187.7,184.7
		c257.2-51.3,544.8-91.8,866-117.8C2914.3,921.4,2852.3,820.8,2836.2,702.8z"/>
	<path class="st5" d="M442.5,1201.8c1.9-7.2,2.9-14.7,2.9-22.5c0-48.6-39.4-87.9-87.9-87.9c-20.2,0-38.8,6.9-53.6,18.4
		c-11.7-31.9-42.2-54.8-78.2-54.8c-4.9,0-9.7,0.5-14.4,1.3c0.5-4.8,0.8-9.6,0.8-14.5c0-74.8-60.6-135.4-135.4-135.4
		c-28.4,0-54.8,8.8-76.6,23.8v215.6C158.1,1157.9,305.8,1177.4,442.5,1201.8z"/>
	<path class="st7" d="M3134.6,996.6c5,3.6,11.4,3.6,16.1-0.2c1.2-1,2.5-2.2,3.9-1.9c2.5,0.4,3.2,4.6,3.1,7.7
		c-0.2,18.9-0.6,36.1-0.2,55c0.2,11.8-2.1,23.3-3.9,34.8c-1.8,11.5-2.8,23.5-0.2,34.9c-8.3,14.7-16.8,29.5-22,46.3
		s-6.1,35.2-1.1,52.6c-7.9,13.2-13.1,28.7-14.8,45.3c-2.7,3.9-5.7,7.6-9.4,10c-3.7,2.4-8.3,3.2-12.3,1.1c-2.8-1.5-5-4.3-7.5-6.4
		c-5-4.1-12.7-4.9-15.8,1.1c-0.8,1.5-1.2,3.1-1.8,4.7c-1.6,4.2-4.6,7.3-7.1,10.8c-2.5,3.4-4.8,7.7-4.5,12.4
		c0.3,5.4,3.8,9.8,7.1,13.6c3.7,4.3,7.4,8.5,11,12.8c1.2,5.5,0.9,12,2.1,17.5c0.3,1.6,0.7,3.2,1.5,4.5c1,1.6,2.5,2.5,4,3.3
		c8.4,4.5,17.4,7,26.4,7.9c0.3,2.3,1.5,4.8,2.4,6.8c2.2,4.5,5.1,8.4,8.1,12.2c2.5-4.4,4.1-9.5,4.7-14.9c3,5.4,7.3,9.7,12.1,12.2
		c0.6,0.3,1.3,0.6,1.8,0.2c0.4-0.3,0.6-0.8,0.7-1.4c2.9-10,0.5-22.6,4.9-31.7c8.6-18.1,20.6-36.6,36.5-44.5
		c9.4-4.6,18-11.5,25.2-20.1c5.9-7,10.9-15.1,17.3-21.3c7.4-7.2,16.3-11.6,25.2-15.9c11.2-5.5,21.9-12.5,34.1-12.5
		c44.4-14.7,96.2,6.6,137.1-18.6c10.6-6.6,21.5-13.4,29.3-24.4c-0.2,0.3-0.4,0.6-0.6,0.9c3.1-3.3,6.3-6.5,9.5-9.5
		c17.4-16.6,33.6-27.5,49.5-33.3c19.7-7.1,39.7-6.3,56.3,2.2c13.3,6.8,23.3,18.3,27.3,31.6c4.7,15.5,0.1,33.3-10.3,39.6
		c-1.6,1-2.8,3.1-3.2,5.7c-0.4,2.9,0.1,5.8,1.4,7.8c2.5,3.7,7.3,4.9,11,2.6c11.7-7.3,15-25.2,16-35.2c1.3-13.9-1.8-28.6-8.6-40.3
		c-13.5-23.2-39.4-37.5-66.2-36.4c-0.2,0-0.4,0-0.6,0c-24,1.2-46.4,15.2-65.7,28.5c-0.2,0.6-0.4,1.2-0.6,1.7
		c3.5-10.6,6.8-22.2,11.4-31.5c10.3-20.7,27.8-34,45.1-45.7c5.5-3.7,11.6-7.6,17.9-6.1c4.4-7.9,7.3-20.1,6-29.8
		c-3-22.7-2.9-46.5-1.5-69.3l-12.2-13.3c-15.6,0.4-31.6,0.9-47,1.4c1.5,8.2,5.7,16.7,11.6,20.8c5.1,3.6,11.5,2.6,16.7-0.1
		c0.8-0.4,1.6-0.8,2.4-0.6c1.2,0.4,1.8,2.1,2.2,3.6c4.4,18.1,3.8,36.7-0.8,54.3c-17.1,8.7-36.9,1.4-55.7,1.1
		c-27.7-0.4-55.6,14.3-72,40.9c-5.2-5.9-7.8-14.5-8.4-23c-0.6-8.5,1.4-17.6,2.8-25.8c-6.6-16.3-34.2-47.3-34.2-47.3l-6.2-18.4
		c-16.1,0.7-34.4,1.6-50.3,2.4c-1.4,6.9,2.7,14.7,7.3,19.5c4.8,5,12,6.1,17.3,2.6c2.4-1.6,4.9-4.1,7.6-3c1.6,0.6,2.7,2.4,3.7,4.1
		c7.8,13.3,16.8,26,18.3,42c0.7,7.8-3.4,14.8-7.8,20.2c-4.4,5.4-9.5,10.6-11.6,17.9c-1.5,5.2-1.3,11,0.6,16.1
		c-30.1-7.4-61-8.7-91.1-4.1c-0.7,0.1-1.4,0.2-2.2,0.4c-5.4-11.2-11.7-22.1-14.6-34.4c-4.5-19.4-5.4-38.9-3.7-58.7l-11.3-17.8
		l-28.4,1.7c-16.4,1-33.3,2.1-49.6,3.2C3126.2,986.3,3129.9,993.1,3134.6,996.6z M3463.2,1158.8c-0.5,1.5-1,2.9-1.6,4.3
		C3462.2,1161.7,3462.7,1160.3,3463.2,1158.8z M3181.9,996.2c0.8-0.4,1.6-0.9,2.4-1.5c1.2-1,2.5-2.2,3.9-1.9
		c2.5,0.4,3.2,4.6,3.1,7.7c-0.2,18.9-0.6,36.1-0.2,55c0.1,4-0.1,7.9-0.5,11.8c-2-4.7-3.7-9.4-4.9-14.4
		C3181.3,1034.1,3180.4,1015.3,3181.9,996.2z"/>
	<path class="st7" d="M3212.9,963.8c-3.7-15.7-4.8-31.4-2.4-47.3c1.6-10.1,6.7-19.3,10.9-28.8c0.7,0,1.5,0.1,2.2,0.1
		c30.3,1.2,60.7-2.6,89.8-11.1c-1.4,4.3-0.9,8.9,1.1,13c2.8,5.7,8.4,9.3,13.3,13.3c4.9,4,9.7,9.2,9.8,15.5
		c0.2,13-7.4,23.9-13.8,35.2c-0.8,1.4-1.7,3-3.3,3.6c-2.5,1.1-5.3-0.7-7.8-1.8c-5.6-2.3-12.7-0.8-16.9,3.6
		c-2.7,2.9-4.1,6.9-4.1,10.8c16.7-0.8,33.5-1.6,50.3-2.4l2.9-9.9c0,0,24.2-27.2,29.1-40.8c-2.2-6.5-5.1-13.6-5.4-20.4
		c-0.3-6.8,1.4-14,5.9-19.1c18.9,19.9,48.1,29.3,75.4,26.6c18.5-1.8,37.4-9.3,55.2-3.9c6.3,13.7,8.8,28.5,6.3,43.3
		c-0.2,1.2-0.6,2.6-1.8,3.1c-0.8,0.3-1.6,0-2.4-0.2c-5.5-1.7-11.9-2-16.6,1.3c-4.6,3.2-6.3,8.9-7.1,14.6c15.6-0.5,31.3-1,47-1.4
		l8.2-10.2c-3.7-18.1-6.2-37.1-5.5-55.6c0.3-7.8-3.9-17.4-9-23.3c-6.1,1.7-12.6-0.9-18.4-3.4c-18.3-7.9-37-17.1-49.3-32.7
		c-5.6-7.1-10-16.1-14.5-24.2c0.3,0.5,0.5,0.9,0.8,1.3c20.4,9,44,18.3,67.9,17.2c0.2,0,0.4,0,0.6,0c26.6-1.4,50.8-15.1,61.8-34.8
		c5.5-9.9,7.1-22,4.4-33c-1.9-7.9-7.1-22-19.4-26.8c-3.9-1.5-8.5-0.2-10.6,3c-1.1,1.7-1.4,4.1-0.6,6.4c0.7,2.1,2.1,3.6,3.8,4.3
		c10.9,4.2,17.3,18,14.2,30.8c-2.6,11-11.3,21.1-23.8,27.6c-15.6,8.2-35.4,10.6-55.5,6.6c-16.3-3.2-33.5-10.6-52.4-22.4
		c-3.5-2.2-7-4.5-10.4-6.8c0.2,0.2,0.5,0.4,0.7,0.6c-8.8-8.2-20.3-12.7-31.5-17c-43-16.6-92.2,4.8-137.6-3.1
		c-12.1,1.1-23.4-3.6-35-7.1c-9.2-2.7-18.5-5.4-26.5-10.6c-7-4.4-12.8-10.5-19.3-15.6c-8-6.3-17.3-11-27-13.9
		c-16.5-4.9-30.3-18.7-40.7-32.5c-5.2-6.9-4.2-17.2-8-25c-0.2-0.4-0.4-0.8-0.8-1c-0.6-0.3-1.2,0-1.8,0.3c-4.6,2.4-8.3,6.2-10.8,10.8
		c-1.1-4.2-3.2-8.2-6.2-11.5c-2.5,3.3-5,6.7-6.8,10.5c-0.7,1.7-1.7,3.8-1.7,5.6c-8.9,1.5-17.5,4.3-25.3,8.6c-1.4,0.8-2.8,1.6-3.6,3
		c-0.7,1.1-0.9,2.4-1,3.7c-0.6,4.5,0.3,9.7-0.3,14.2c-3.2,3.7-6.4,7.5-9.6,11.2c-2.9,3.3-5.9,7.1-5.7,11.5c0.2,3.8,2.9,7,5.7,9.5
		s6.1,4.8,8.1,8c0.8,1.2,1.3,2.5,2.2,3.6c3.7,4.5,11.2,3.3,15.7-0.4c2.3-1.9,4.2-4.3,6.8-5.7c3.7-2,8.3-1.8,12.2-0.2
		c3.9,1.6,7.2,4.3,10.3,7.2c3.4,13.1,10,25,19.2,35c-3.2,14.4-0.4,29,6.5,42c6.9,13,16.8,24.1,26.5,35.1c-1.5,9.4,0.8,18.9,3.7,27.9
		c2.9,9.1,6.5,18,7.4,27.5c1.5,15.1,3.8,28.9,5.8,44c0.3,2.5,0.1,5.9-2.3,6.4c-1.4,0.3-2.8-0.6-4.1-1.2c-5-2.6-11.4-2.1-16,1.2
		c-3.8,2.8-6.1,7.4-6.1,12.1c25.8-1.7,51.7-3.4,77.9-4.9L3212.9,963.8z M3441.2,809.6c-0.7-1.1-1.3-2.3-2-3.3
		C3439.9,807.3,3440.6,808.4,3441.2,809.6z M3185.8,965.9c-1.4,0.3-2.8-0.6-4.1-1.2c-0.8-0.4-1.7-0.7-2.5-1
		c-3.4-15.1-4.4-30.3-2-45.7c0.6-4.1,1.9-8.1,3.4-11.9c0.8,3.1,1.4,6.2,1.7,9.4c1.5,15.1,3.8,28.9,5.8,44
		C3188.5,962,3188.3,965.4,3185.8,965.9z"/>
</g>
</svg>
