<?xml version="1.0" encoding="utf-8"?>
<!-- Generator: Adobe Illustrator 25.4.1, SVG Export Plug-In . SVG Version: 6.00 Build 0)  -->
<svg version="1.1" id="Layer_1" xmlns="http://www.w3.org/2000/svg" xmlns:xlink="http://www.w3.org/1999/xlink" x="0px" y="0px"
	 viewBox="0 0 2620.3 1473.9" style="enable-background:new 0 0 2620.3 1473.9;" xml:space="preserve">
<style type="text/css">
	.st0{fill:#12373F;}
	.st1{fill:url(#SVGID_1_);}
	.st2{opacity:0.4;fill:url(#SVGID_00000132795244392336324560000004446747482871563913_);}
	.st3{opacity:0.3;fill:url(#SVGID_00000102542429459126328950000015084741425395762311_);}
	.st4{opacity:0.2;fill:#7C8B99;}
	.st5{opacity:0.1;fill:#7C8B99;}
	.st6{fill:#396477;}
	.st7{fill:#194B5B;}
	.st8{opacity:0.4;fill:#7C8B99;}
</style>
<g>
	<rect class="st0" width="2620.3" height="1473.9"/>
	<g>
		
			<radialGradient id="SVGID_1_" cx="2046.9115" cy="-96.0433" r="342.0102" fx="1988.0905" fy="-103.7178" gradientTransform="matrix(0.838 0.5457 -0.5457 0.838 460.9797 -649.0341)" gradientUnits="userSpaceOnUse">
			<stop  offset="0" style="stop-color:#FFFFFF"/>
			<stop  offset="0.6344" style="stop-color:#EDEDED"/>
			<stop  offset="1" style="stop-color:#E1E0E0"/>
		</radialGradient>
		<path class="st1" d="M2373.8,699.9c-143.9,79.3-324.9,27-404.2-116.9c-79.3-143.9-27-324.9,116.9-404.2
			c143.9-79.4,324.9-27,404.2,116.9C2570.1,439.6,2517.8,620.5,2373.8,699.9z"/>
		
			<radialGradient id="SVGID_00000007430099461785318230000005546128108745740684_" cx="2076.4707" cy="-53.3562" r="297.5464" gradientTransform="matrix(0.838 0.5457 -0.5457 0.838 460.9797 -649.0341)" gradientUnits="userSpaceOnUse">
			<stop  offset="0" style="stop-color:#FFFFFF"/>
			<stop  offset="0.6344" style="stop-color:#EDEDED"/>
			<stop  offset="1" style="stop-color:#E1E0E0"/>
		</radialGradient>
		<path style="opacity:0.4;fill:url(#SVGID_00000007430099461785318230000005546128108745740684_);" d="M2321.2,156
			c90.8,32,160.9,112.4,174.8,214.4c19.8,145.1-81.8,278.8-226.9,298.6c-145.1,19.8-278.8-81.8-298.6-226.9
			c-19.6-143.9,80-276.4,223.2-298c-1.3,0.1-2.5,0.3-3.8,0.5c-162.8,22.2-276.8,172.2-254.6,335c22.2,162.8,172.2,276.8,335,254.6
			c162.8-22.2,276.8-172.2,254.6-335C2509,281.9,2426.8,190,2321.2,156z"/>
		
			<radialGradient id="SVGID_00000167379711168934735260000005042972439478185901_" cx="1975.3297" cy="-177.0946" r="220.7851" gradientTransform="matrix(0.7918 0.6108 -0.6108 0.7918 564.3121 -705.5671)" gradientUnits="userSpaceOnUse">
			<stop  offset="0" style="stop-color:#FFFFFF"/>
			<stop  offset="0.6344" style="stop-color:#EDEDED"/>
			<stop  offset="1" style="stop-color:#E1E0E0"/>
		</radialGradient>
		<path style="opacity:0.3;fill:url(#SVGID_00000167379711168934735260000005042972439478185901_);" d="M2466.9,347.9
			c6.5,116-91.5,215.7-218.7,222.8c-127.3,7.1-235.7-81.2-242.1-197.1c-6.5-116,91.5-215.7,218.7-222.8
			C2352,143.7,2460.4,231.9,2466.9,347.9z"/>
	</g>
	<g>
		<path class="st4" d="M2620.3,664.9c-15.4-15.7-36.8-25.4-60.3-25.4c-8.5-60.4-62.2-105.1-124.2-101.2c-8.6,0.5-17,2-25,4.3
			c-23.8-44.4-71.9-73.3-125.5-69.9c-43.1,2.7-80.1,25.7-102.4,59.1c-16-6.3-33.7-9.3-52-8.1c-56.8,3.6-102,45.5-112,99
			c-53.7,3.9-94.4,50.3-91,104.2c1.1,16.9,6.3,32.6,14.8,46h677.5V664.9z"/>
		<path class="st5" d="M2620.3,557.2c-0.6,0.1-1.2,0.1-1.9,0.2c-6.6-74.8-69.4-133.5-145.9-133.5c-79.9,0-144.8,64-146.5,143.5
			c-35.4,17.1-59.8,53.4-59.8,95.3c0,12.4,2.1,24.2,6.1,35.3h348V557.2z"/>
	</g>
	<path class="st6" d="M2620.3,1473.9V652.8C903.1,652.8,293,1192.1,91.5,1473.9H2620.3z"/>
	<path class="st7" d="M91.5,1473.9c101.3-141.6,305.6-348.1,701.6-518.6C606.4,883.6,338.2,807.5,0,781.9v692H91.5z"/>
	<path class="st0" d="M793.1,955.3L793.1,955.3c0,0-515,118.1-793.1,518.6h91.5C192.7,1332.3,397.1,1125.8,793.1,955.3z"/>
	<path class="st8" d="M1935.4,479.5c-5.1-37.5-3-74.2,5.2-108.9c-15.7-16.1-37.6-26.1-61.9-26.1c-47.8,0-86.5,38.7-86.5,86.5
		c0,0.1,0,0.2,0,0.3c-7.1-1.9-14.6-3-22.3-3c-47.3,0-85.6,38.3-85.6,85.6c0,11,2.1,21.4,5.9,31.1c-26.1,18.9-43.1,49.6-43.1,84.3
		c0,5.7,0.6,11.2,1.5,16.6c-18.6-10.6-40.2-16.6-63.1-16.6c-70,0-127,56.2-128.1,126c175.5-35,371.7-62.7,590.9-80.4
		C1988.6,628.7,1946.4,560.1,1935.4,479.5z"/>
	<path class="st5" d="M301.9,820.1c1.3-4.9,2-10,2-15.3c0-33.1-26.9-60-60-60c-13.8,0-26.5,4.7-36.6,12.5
		c-8-21.8-28.8-37.4-53.4-37.4c-3.4,0-6.6,0.3-9.8,0.9c0.3-3.2,0.5-6.5,0.5-9.9c0-51-41.4-92.4-92.4-92.4c-19.4,0-37.4,6-52.3,16.2
		v147.1C107.9,790.1,208.7,803.4,301.9,820.1z"/>
	<path class="st7" d="M2139,680c3.4,2.5,7.8,2.4,11-0.1c0.8-0.7,1.7-1.5,2.7-1.3c1.7,0.3,2.2,3.1,2.1,5.3
		c-0.1,12.9-0.4,24.6-0.2,37.5c0.2,8.1-1.5,15.9-2.7,23.7s-1.9,16-0.1,23.8c-5.7,10-11.4,20.1-15,31.6s-4.2,24-0.8,35.9
		c-5.4,9-8.9,19.6-10.1,30.9c-1.9,2.6-3.9,5.2-6.4,6.8s-5.7,2.2-8.4,0.7c-1.9-1-3.4-2.9-5.1-4.3c-3.4-2.8-8.6-3.3-10.8,0.8
		c-0.5,1-0.8,2.1-1.2,3.2c-1.1,2.9-3.1,5-4.8,7.3c-1.7,2.3-3.3,5.2-3.1,8.5c0.2,3.7,2.6,6.7,4.9,9.3c2.5,2.9,5,5.8,7.5,8.7
		c0.8,3.7,0.6,8.2,1.4,11.9c0.2,1.1,0.5,2.2,1,3.1c0.7,1.1,1.7,1.7,2.7,2.2c5.7,3.1,11.9,4.8,18,5.4c0.2,1.6,1,3.3,1.7,4.6
		c1.5,3.1,3.5,5.7,5.5,8.3c1.7-3,2.8-6.5,3.2-10.2c2.1,3.7,5,6.6,8.3,8.3c0.4,0.2,0.9,0.4,1.2,0.1c0.3-0.2,0.4-0.6,0.5-0.9
		c2-6.8,0.4-15.4,3.3-21.6c5.9-12.4,14.1-25,24.9-30.3c6.4-3.2,12.3-7.8,17.2-13.7c4-4.8,7.4-10.3,11.8-14.6
		c5-4.9,11.2-7.9,17.2-10.9c7.6-3.7,14.9-8.5,23.2-8.5c30.3-10,65.7,4.5,93.5-12.7c7.3-4.5,14.7-9.1,20-16.6
		c-0.1,0.2-0.3,0.4-0.4,0.6c2.1-2.2,4.3-4.4,6.5-6.5c11.9-11.4,22.9-18.8,33.8-22.7c13.4-4.8,27.1-4.3,38.4,1.5
		c9.1,4.6,15.9,12.5,18.6,21.6c3.2,10.6,0,22.7-7,27c-1.1,0.7-1.9,2.1-2.2,3.9c-0.3,2,0.1,3.9,1,5.3c1.7,2.5,5,3.3,7.5,1.8
		c8-5,10.3-17.2,10.9-24c0.9-9.5-1.3-19.5-5.9-27.5c-9.2-15.8-26.9-25.6-45.1-24.8c-0.1,0-0.3,0-0.4,0
		c-16.4,0.8-31.7,10.3-44.8,19.4c-0.1,0.4-0.3,0.8-0.4,1.2c2.4-7.2,4.6-15.1,7.8-21.5c7-14.1,19-23.2,30.8-31.2
		c3.7-2.5,7.9-5.2,12.2-4.2c3-5.4,5-13.7,4.1-20.3c-2-15.5-2-31.8-1-47.3l-8.3-9c-10.7,0.3-21.5,0.6-32.1,0.9
		c1,5.6,3.9,11.4,7.9,14.2c3.5,2.5,7.8,1.7,11.4-0.1c0.5-0.3,1.1-0.6,1.6-0.4c0.8,0.3,1.2,1.4,1.5,2.5c3,12.4,2.6,25-0.6,37
		c-11.7,5.9-25.2,1-38,0.8c-18.9-0.3-37.9,9.7-49.1,27.9c-3.5-4-5.3-9.9-5.7-15.7c-0.4-5.8,0.9-12,1.9-17.6
		c-4.5-11.1-23.4-32.3-23.4-32.3l-4.2-12.5c-11,0.5-23.5,1.1-34.3,1.6c-1,4.7,1.9,10,4.9,13.3c3.3,3.4,8.2,4.2,11.8,1.8
		c1.6-1.1,3.4-2.8,5.2-2c1.1,0.4,1.9,1.6,2.5,2.8c5.3,9.1,11.5,17.7,12.5,28.7c0.5,5.3-2.3,10.1-5.3,13.8c-3,3.7-6.5,7.2-7.9,12.2
		c-1,3.5-0.9,7.5,0.4,11c-20.6-5-41.6-6-62.2-2.8c-0.5,0.1-1,0.2-1.5,0.2c-3.7-7.7-8-15.1-10-23.5c-3.1-13.3-3.7-26.6-2.5-40.1
		l-7.7-12.2l-19.3,1.2c-11.2,0.7-22.7,1.4-33.9,2.2C2133.3,673,2135.7,677.6,2139,680z M2363.2,790.7c-0.3,1-0.7,2-1.1,3
		C2362.5,792.7,2362.9,791.7,2363.2,790.7z M2171.2,679.8c0.6-0.3,1.1-0.6,1.6-1c0.8-0.7,1.7-1.5,2.7-1.3c1.7,0.3,2.2,3.1,2.1,5.3
		c-0.1,12.9-0.4,24.6-0.2,37.5c0.1,2.7-0.1,5.4-0.4,8c-1.4-3.2-2.6-6.4-3.3-9.8C2170.8,705.7,2170.2,692.8,2171.2,679.8z"/>
	<path class="st7" d="M2192.4,657.6c-2.5-10.7-3.3-21.4-1.6-32.3c1.1-6.9,4.6-13.2,7.5-19.6c0.5,0,1,0,1.5,0.1
		c20.7,0.8,41.4-1.8,61.3-7.5c-0.9,2.9-0.6,6.1,0.7,8.8c1.9,3.9,5.7,6.4,9.1,9.1c3.3,2.7,6.6,6.3,6.7,10.6c0.1,8.8-5.1,16.3-9.4,24
		c-0.6,1-1.2,2-2.2,2.5c-1.7,0.7-3.6-0.5-5.3-1.2c-3.9-1.6-8.6-0.6-11.5,2.4c-1.9,2-2.8,4.7-2.8,7.4c11.4-0.6,22.8-1.1,34.3-1.6
		l2-6.7c0,0,16.5-18.6,19.8-27.8c-1.5-4.4-3.5-9.3-3.7-13.9c-0.2-4.7,1-9.6,4.1-13.1c12.9,13.6,32.8,20,51.5,18.1
		c12.7-1.3,25.5-6.4,37.7-2.6c4.3,9.3,6,19.4,4.3,29.6c-0.1,0.8-0.4,1.8-1.2,2.1c-0.5,0.2-1.1,0-1.7-0.2c-3.7-1.2-8.1-1.4-11.3,0.9
		c-3.1,2.2-4.3,6-4.9,10c10.7-0.3,21.4-0.6,32.1-0.9l5.6-7c-2.5-12.3-4.2-25.3-3.8-37.9c0.2-5.3-2.6-11.8-6.1-15.9
		c-4.1,1.2-8.6-0.6-12.5-2.3c-12.5-5.4-25.2-11.6-33.6-22.3c-3.8-4.8-6.8-11-9.9-16.5c0.2,0.3,0.3,0.6,0.5,0.9
		c13.9,6.2,30,12.5,46.3,11.7c0.1,0,0.3,0,0.4,0c18.1-1,34.7-10.3,42.2-23.7c3.8-6.8,4.9-15,3-22.5c-1.3-5.4-4.8-15-13.2-18.3
		c-2.6-1-5.8-0.1-7.2,2.1c-0.8,1.2-0.9,2.8-0.4,4.3c0.5,1.4,1.4,2.5,2.6,2.9c7.4,2.9,11.8,12.3,9.7,21c-1.8,7.5-7.7,14.4-16.2,18.9
		c-10.7,5.6-24.1,7.2-37.9,4.5c-11.1-2.2-22.8-7.2-35.8-15.3c-2.4-1.5-4.8-3-7.1-4.7c0.2,0.1,0.3,0.3,0.5,0.4
		c-6-5.6-13.8-8.6-21.5-11.6c-29.4-11.4-62.9,3.3-93.9-2.1c-8.2,0.7-16-2.5-23.9-4.8c-6.3-1.8-12.6-3.7-18.1-7.2
		c-4.8-3-8.7-7.2-13.2-10.6c-5.5-4.3-11.8-7.5-18.4-9.5c-11.3-3.4-20.7-12.7-27.8-22.1c-3.6-4.7-2.9-11.7-5.5-17
		c-0.1-0.3-0.3-0.6-0.6-0.7c-0.4-0.2-0.8,0-1.2,0.2c-3.1,1.6-5.7,4.3-7.3,7.4c-0.8-2.9-2.2-5.6-4.2-7.9c-1.7,2.2-3.4,4.5-4.6,7.1
		c-0.5,1.1-1.1,2.6-1.2,3.8c-6,1.1-12,3-17.3,5.9c-0.9,0.5-1.9,1.1-2.5,2c-0.5,0.8-0.6,1.7-0.7,2.5c-0.4,3.1,0.2,6.6-0.2,9.7
		c-2.2,2.5-4.4,5.1-6.6,7.6c-2,2.3-4,4.9-3.9,7.9c0.1,2.6,2,4.8,3.9,6.5s4.2,3.3,5.5,5.5c0.5,0.8,0.9,1.7,1.5,2.5
		c2.5,3.1,7.7,2.2,10.7-0.3c1.6-1.3,2.9-2.9,4.6-3.9c2.5-1.4,5.7-1.2,8.4-0.1c2.7,1.1,4.9,3,7,4.9c2.3,8.9,6.8,17.1,13.1,23.9
		c-2.2,9.8-0.3,19.8,4.4,28.7c4.7,8.9,11.4,16.5,18.1,24c-1,6.4,0.5,12.9,2.5,19.1c2,6.2,4.4,12.3,5.1,18.8c1,10.3,2.6,19.7,4,30
		c0.2,1.7,0.1,4-1.6,4.4c-1,0.2-1.9-0.4-2.8-0.8c-3.4-1.8-7.8-1.4-10.9,0.8c-2.6,1.9-4.1,5.1-4.2,8.3c17.6-1.2,35.3-2.3,53.2-3.4
		L2192.4,657.6z M2348.2,552.4c-0.4-0.8-0.9-1.5-1.3-2.3C2347.3,550.9,2347.7,551.6,2348.2,552.4z M2173.9,659.1
		c-1,0.2-1.9-0.4-2.8-0.8c-0.6-0.3-1.1-0.5-1.7-0.7c-2.3-10.3-3-20.7-1.4-31.2c0.4-2.8,1.3-5.5,2.3-8.1c0.5,2.1,1,4.2,1.2,6.4
		c1,10.3,2.6,19.7,4,30C2175.7,656.4,2175.6,658.7,2173.9,659.1z"/>
</g>
</svg>
